<?xml version="1.0" encoding="UTF-8" standalone="no"?>
<svg
   xmlns:dc="http://purl.org/dc/elements/1.1/"
   xmlns:cc="http://creativecommons.org/ns#"
   xmlns:rdf="http://www.w3.org/1999/02/22-rdf-syntax-ns#"
   xmlns:svg="http://www.w3.org/2000/svg"
   xmlns="http://www.w3.org/2000/svg"
   xmlns:xlink="http://www.w3.org/1999/xlink"
   xmlns:sodipodi="http://sodipodi.sourceforge.net/DTD/sodipodi-0.dtd"
   xmlns:inkscape="http://www.inkscape.org/namespaces/inkscape"
   width="2500"
   height="1500"
   viewBox="0 0 192.756 115.6536"
   version="1.1"
   id="svg20"
   sodipodi:docname="americanexpress.svg"
   inkscape:version="0.92.4 (5da689c313, 2019-01-14)">
  <metadata
     id="metadata26">
    <rdf:RDF>
      <cc:Work
         rdf:about="">
        <dc:format>image/svg+xml</dc:format>
        <dc:type
           rdf:resource="http://purl.org/dc/dcmitype/StillImage" />
        <dc:title></dc:title>
      </cc:Work>
    </rdf:RDF>
  </metadata>
  <defs
     id="defs24">
    <linearGradient
       id="linearGradient1112"
       inkscape:collect="always">
      <stop
         id="stop1108"
         offset="0"
         style="stop-color:#0ccdff;stop-opacity:0.96470588" />
      <stop
         id="stop1110"
         offset="1"
         style="stop-color:#00acec;stop-opacity:0.98039216" />
    </linearGradient>
    <linearGradient
       inkscape:collect="always"
       id="linearGradient1052">
      <stop
         style="stop-color:#00ffff;stop-opacity:1;"
         offset="0"
         id="stop1048" />
      <stop
         style="stop-color:#00acec;stop-opacity:0.98039216"
         offset="1"
         id="stop1050" />
    </linearGradient>
    <linearGradient
       inkscape:collect="always"
       xlink:href="#linearGradient1052"
       id="linearGradient1084"
       gradientUnits="userSpaceOnUse"
       x1="5.0591807"
       y1="97.900352"
       x2="119.52343"
       y2="97.900352" />
    <linearGradient
       inkscape:collect="always"
       xlink:href="#linearGradient1112"
       id="linearGradient1106"
       x1="30.630026"
       y1="108.99622"
       x2="119.52339"
       y2="108.99622"
       gradientUnits="userSpaceOnUse"
       gradientTransform="matrix(1.6072862,0,0,1.6072862,-4.153077,-100.69134)" />
    <linearGradient
       inkscape:collect="always"
       xlink:href="#linearGradient1112"
       id="linearGradient1127"
       x1="5.0591807"
       y1="86.791481"
       x2="110.90787"
       y2="86.791481"
       gradientUnits="userSpaceOnUse"
       gradientTransform="matrix(1.6072862,0,0,1.6072862,-4.153077,-100.69134)" />
  </defs>
  <sodipodi:namedview
     pagecolor="#ffffff"
     bordercolor="#666666"
     borderopacity="1"
     objecttolerance="10"
     gridtolerance="10"
     guidetolerance="10"
     inkscape:pageopacity="0"
     inkscape:pageshadow="2"
     inkscape:window-width="1366"
     inkscape:window-height="705"
     id="namedview22"
     showgrid="false"
     inkscape:zoom="0.08"
     inkscape:cx="-1241.881"
     inkscape:cy="559.02277"
     inkscape:window-x="2552"
     inkscape:window-y="162"
     inkscape:window-maximized="1"
     inkscape:current-layer="svg20" />
  <path
     style="opacity:0.98000004;fill:url(#linearGradient1127);fill-opacity:1;stroke:none;stroke-width:1.3924042;stroke-linecap:round;stroke-linejoin:round;stroke-miterlimit:4;stroke-dasharray:none;stroke-opacity:1;paint-order:stroke fill markers"
     d="m 3.978475,52.495999 5.825423,-12.80424 3.1985,-7.171467 3.1985,-7.171476 5.407502,-0.13093 5.4075,-0.130929 0.908763,2.103501 c 0.499818,1.156931 1.378697,3.095586 1.953063,4.308149 l 1.044304,2.204637 0.133453,-4.293242 0.133453,-4.293253 h 6.500471 6.500468 l 2.165867,4.479935 2.165863,4.479936 2.060198,-4.479936 2.060195,-4.479935 23.718062,0.01109 c 13.044929,0.0061 24.52147,0.1975 25.50342,0.425374 0.98195,0.227861 2.28733,0.885868 2.90084,1.462234 l 1.11548,1.047928 V 26.590073 25.11676 h 4.87342 4.87341 v 1.665732 1.665734 l 1.42818,-1.201731 c 0.78549,-0.660958 1.98644,-1.358324 2.66877,-1.549703 0.68233,-0.191378 6.21754,-0.347969 12.30048,-0.347969 h 11.05987 l 1.70384,3.925589 1.70383,3.925593 0.23206,-3.925593 0.23207,-3.925589 5.87833,-0.129596 5.87834,-0.129595 2.01195,3.544383 2.01195,3.544373 0.23208,-3.414771 0.23206,-3.414781 5.45358,-0.130753 5.45359,-0.130769 v 13.720575 13.720584 l -5.91088,-0.1299 -5.91087,-0.129917 -2.32751,-3.817914 -2.32751,-3.817915 -0.13405,3.933946 -0.13405,3.933957 h -7.44733 -7.44721 l -1.23725,-2.803792 -1.23725,-2.80378 -2.47948,0.135012 -2.47949,0.135012 -1.08,2.552743 -1.08001,2.552732 -5.49114,-0.0098 c -5.95813,-0.01061 -8.14562,-0.514952 -10.37634,-2.391979 l -1.38061,-1.161703 v 1.897796 1.897797 H 106.576 97.525371 V 49.11258 c 0,-3.734724 -0.411381,-4.50211 -2.413501,-4.50211 h -1.299577 v 3.945152 3.945146 H 74.550699 55.289107 l -0.0043,-3.132914 -0.0043,-3.132902 -1.460781,3.132902 -1.46078,3.132914 h -3.7729 -3.772902 l -1.608095,-3.132914 -1.608056,-3.132902 -0.137246,3.132902 -0.13723,3.132914 h -7.520984 -7.520984 l -0.98918,-2.436254 -0.989182,-2.436266 -2.541167,-0.137214 -2.541168,-0.137214 -1.110999,2.56599 -1.111,2.565993 -3.597045,0.0079 -3.597044,0.0079 z"
     id="path1020"
     inkscape:connector-curvature="0"
     sodipodi:nodetypes="cccccccccccccccccscccccccccccsccccccccccccccccccccccccccccccccccccsscccccccccccccccccccccccccc" />
  <path
     style="opacity:0.98000004;fill:url(#linearGradient1106);fill-opacity:1;stroke:none;stroke-width:1.3924042;stroke-linecap:round;stroke-linejoin:round;stroke-miterlimit:4;stroke-dasharray:none;stroke-opacity:1;paint-order:stroke fill markers"
     d="M 45.07814,74.54712 V 60.85513 h 12.493191 12.493191 l 2.286138,2.60631 2.286137,2.6063 2.250113,-2.6063 2.250114,-2.60631 9.774343,0.003 c 9.827411,0.003 12.744493,0.35755 14.299653,1.73995 0.7509,0.66749 0.81224,0.62894 0.81224,-0.51027 v -1.23227 h 8.38096 c 8.3863,0 12.00824,0.46653 13.01203,1.67604 0.81274,0.97929 1.34961,0.77414 1.34961,-0.51569 v -1.16035 h 10.44303 10.44304 v 1.14469 1.14468 l 1.7405,-1.02865 c 1.58185,-0.93488 2.47037,-1.04273 9.74683,-1.18303 l 8.00633,-0.1543 v 1.21256 1.21258 l 1.42817,-1.05589 c 1.30564,-0.9653 2.02232,-1.07037 8.35443,-1.22481 l 10.05917,-0.16895 -0.0865,10.05694 h -3.90395 c 0,0 3.15543,1.33597 3.87432,2.7463 1.55193,3.04444 1.37003,7.17372 -0.11605,10.25084 -0.77601,1.60687 -4.15482,3.37569 -4.15482,3.37569 -1.05716,0.69377 -2.55058,0.84574 -9.51476,0.96826 -8.08256,0.14224 -8.26079,0.12472 -8.26079,-0.81223 0,-1.16263 0.13083,-1.1608 -2.08861,-0.0292 -1.74217,0.8882 -2.73708,0.92827 -23.05403,0.92827 h -21.2332 l -0.1348,-3.82912 -0.1348,-3.8291 -1.74051,-0.14401 -1.7405,-0.14401 v 3.97314 3.97318 h -5.33755 -5.33755 v -4.42561 -4.42562 l -1.04431,0.5957 c -0.57436,0.32808 -3.028475,0.70092 -5.453579,0.82857 l -4.409281,0.23206 -0.135558,3.59706 -0.135559,3.59704 h -7.105207 -7.10521 L 76.59758,85.68581 c -1.120337,-1.40399 -2.143636,-2.54025 -2.273997,-2.525 -0.130367,0.0145 -1.176893,1.15826 -2.325627,2.54 l -2.088606,2.51224 -12.415604,0.0129 -12.415607,0.0129 z"
     id="path1022"
     inkscape:connector-curvature="0"
     sodipodi:nodetypes="ccccccccccscscscccccssccccccccssccscsccccccccccccccccccccccccc" />
  <g
     id="g1038"
     style="fill:#ffffff"
     transform="matrix(1.6072862,0,0,1.6072862,-4.153077,-100.69134)">
    <path
       d="m 15.98695,87.447615 h -1.91 l 1.91,-4.52 v 0.127 l 1.974,4.392 h -1.974 z m 16.614,1.464 -3.883,-8.721 h -5.029 v 12.477003 l -5.602,-12.477003 h -4.202 L 8.2209509,93.176618 H 11.59495 l 1.21,-2.928003 h 6.366 l 1.273,2.928003 h 6.429 v -9.676003 l 4.265,9.676003 h 2.929 l 4.329,-9.485003 v 9.485003 h 3.183 V 80.190615 h -5.093 z"
       style="clip-rule:evenodd;opacity:0.98000004;fill:#ffffff;fill-rule:evenodd;stroke-width:1"
       id="path891-9"
       inkscape:connector-curvature="0" />
    <path
       d="m 63.15695,85.919615 h -3.947 v -2.928 h 3.947 c 1.337,0 1.782,0.828 1.782,1.464 0,0.891 -0.445,1.464 -1.782,1.464 z m 4.965,-2.291 c 0,-2.737 -2.229,-3.438 -3.82,-3.438 h -8.276 v 12.986003 h 3.183 v -4.583003 h 4.138 c 1.146,0 1.591,1.082 1.591,2.165003 l 0.064,2.419 h 3.119 l -0.128,-2.673 c 0,-2.101003 -0.572,-3.056003 -2.037,-3.246003 1.721,-0.893 2.166,-2.04 2.166,-3.63 z"
       style="clip-rule:evenodd;opacity:0.98000004;fill:#ffffff;fill-rule:evenodd;stroke-width:1"
       id="path887-3"
       inkscape:connector-curvature="0" />
    <path
       id="path885-5"
       d="m 69.77695,93.176618 h 3.183 V 80.190615 h -3.183 z"
       style="clip-rule:evenodd;opacity:0.98000004;fill:#ffffff;fill-rule:evenodd;stroke-width:1"
       inkscape:connector-curvature="0" />
    <path
       d="m 88.17395,87.447615 h -1.974 l 1.91,-4.52 0.064,0.127 1.909,4.392 h -1.909 z m 17.63302,-7.257 v 8.976 l -5.41001,-8.976 h -4.71101 v 12.158003 l -5.475,-12.158003 h -4.202 l -4.392,10.058 c 0,0 -1.592,0 -1.782,-0.063 -1.019,-0.127 -2.229,-1.146 -2.229,-3.438 0,-3.056 1.655,-3.756 3.756,-3.756 h 1.974 v -2.801 h -4.138 c -1.463,0 -4.647,1.082 -4.71,6.429 -0.127,3.565 1.464,6.557003 5.029,6.557003 h 4.201 l 1.209,-2.928003 h 6.366 l 1.273,2.928003 h 6.303 v -9.485003 l 5.72902,9.485003 h 4.393 V 80.190615 Z"
       style="clip-rule:evenodd;opacity:0.98000004;fill:#ffffff;fill-rule:evenodd;stroke-width:1"
       id="path881-6"
       inkscape:connector-curvature="0" />
    <path
       id="path879-5"
       d="m 43.74195,93.176618 h 10.439 v -2.737003 h -7.257 v -2.547 h 7.067 v -2.483 h -7.067 v -2.418 h 7.257 v -2.801 h -10.439 z"
       style="clip-rule:evenodd;opacity:0.98000004;fill:#ffffff;fill-rule:evenodd;stroke-width:1"
       inkscape:connector-curvature="0" />
    <path
       id="path877-0"
       d="m 101.22296,107.49856 c -0.189,0 -1.97301,-0.062 -2.22701,-0.062 -0.764,-0.064 -1.338,-0.256 -1.338,-1.02 0,-1.273 1.211,-1.146 2.35501,-1.146 h 4.90201 v -2.801 h -6.74802 c -2.037,0 -3.755,1.338 -3.755,3.758 0,2.162 0.827,3.945 4.328,4.01 0.256,0 1.78301,0.062 2.22901,0.127 0.955,0.127 1.146,0.51 1.146,1.082 0,1.273 -1.273,1.273 -2.164005,1.273 H 94.73095 v 2.736 h 6.68301 c 2.102,0 4.07401,-1.271 4.07401,-3.691 0,-2.102 -0.318,-4.074 -4.26501,-4.266 z"
       style="clip-rule:evenodd;opacity:0.98000004;fill:#ffffff;fill-rule:evenodd;stroke-width:1"
       inkscape:connector-curvature="0" />
    <path
       id="path875-2"
       d="m 113.19097,107.49856 c -0.191,0 -1.975,-0.062 -2.229,-0.062 -0.764,-0.064 -1.336,-0.256 -1.336,-1.02 0,-1.273 1.209,-1.146 2.291,-1.146 h 4.902 v -2.801 h -6.686 c -2.1,0 -3.818,1.338 -3.818,3.758 0,2.162 0.826,3.945 4.393,4.01 0.254,0 1.781,0.062 2.227,0.127 0.893,0.127 1.146,0.51 1.146,1.082 0,1.273 -1.336,1.273 -2.229,1.273 h -5.219 v 2.736 h 6.748 c 2.1,0 4.072,-1.271 4.072,-3.691 0.002,-2.102 -0.316,-4.074 -4.262,-4.266 z"
       style="clip-rule:evenodd;opacity:0.98000004;fill:#ffffff;fill-rule:evenodd;stroke-width:1"
       inkscape:connector-curvature="0" />
    <path
       d="m 62.51995,108.38956 h -3.947 v -3.119 h 3.947 c 1.336,0 1.782,0.828 1.782,1.465 10e-4,0.89 -0.445,1.654 -1.782,1.654 z m 1.146,-5.92 h -11.204 l -3.628,4.012 -3.565,-4.012 h -12.603 v 12.924 h 12.221 l 3.82,-4.266 3.756,4.328 h 6.111 v -4.393 h 4.264 c 1.655,0 4.711,-0.062 4.711,-4.646 0,-3.183 -2.292,-3.947 -3.883,-3.947 z m -8.275,11.715 -2.292,-2.674 -2.292,-2.738 2.292,-2.482 2.292,-2.547 z m -12.223,-1.465 h -7.256 v -2.609 h 7.002 v -2.42 h -7.002 v -2.42 h 7.257 l 3.565,3.502 z"
       style="clip-rule:evenodd;opacity:0.98000004;fill:#ffffff;fill-rule:evenodd;stroke-width:1"
       id="path867-7"
       inkscape:connector-curvature="0" />
    <path
       d="m 76.20595,108.19956 h -4.01 v -2.93 h 4.01 c 1.337,0 1.782,0.828 1.782,1.465 0.001,0.891 -0.508,1.465 -1.782,1.465 z m 4.966,-2.228 c 0,-2.801 -2.292,-3.502 -3.819,-3.502 h -8.339 v 12.986 h 3.183 v -4.582 h 4.201 c 1.083,0 1.528,1.082 1.591,2.227 l 0.063,2.355 h 3.12 l -0.127,-2.674 c 0,-2.1 -0.573,-3.055 -2.101,-3.246 1.782,-0.826 2.228,-2.037 2.228,-3.564 z"
       style="clip-rule:evenodd;opacity:0.98000004;fill:#ffffff;fill-rule:evenodd;stroke-width:1"
       id="path863-1"
       inkscape:connector-curvature="0" />
    <path
       id="path861-0"
       d="m 82.76295,115.39356 h 10.376 v -2.674 h -7.193 v -2.609 h 7.003 v -2.42 h -7.003 v -2.42 h 7.193 v -2.801 h -10.376 z"
       style="clip-rule:evenodd;opacity:0.98000004;fill:#ffffff;fill-rule:evenodd;stroke-width:1"
       inkscape:connector-curvature="0" />
  </g>
</svg>
