<?xml version="1.0" encoding="UTF-8" standalone="no"?>
<svg
   xmlns:dc="http://purl.org/dc/elements/1.1/"
   xmlns:cc="http://creativecommons.org/ns#"
   xmlns:rdf="http://www.w3.org/1999/02/22-rdf-syntax-ns#"
   xmlns:svg="http://www.w3.org/2000/svg"
   xmlns="http://www.w3.org/2000/svg"
   xmlns:sodipodi="http://sodipodi.sourceforge.net/DTD/sodipodi-0.dtd"
   xmlns:inkscape="http://www.inkscape.org/namespaces/inkscape"
   width="2500"
   height="2500"
   viewBox="0 0 192.756 192.756"
   version="1.1"
   id="svg14"
   sodipodi:docname="banri-compras.svg"
   inkscape:version="0.92.4 (5da689c313, 2019-01-14)">
  <metadata
     id="metadata20">
    <rdf:RDF>
      <cc:Work
         rdf:about="">
        <dc:format>image/svg+xml</dc:format>
        <dc:type
           rdf:resource="http://purl.org/dc/dcmitype/StillImage" />
        <dc:title />
      </cc:Work>
    </rdf:RDF>
  </metadata>
  <defs
     id="defs18" />
  <sodipodi:namedview
     pagecolor="#ffffff"
     bordercolor="#666666"
     borderopacity="1"
     objecttolerance="10"
     gridtolerance="10"
     guidetolerance="10"
     inkscape:pageopacity="0"
     inkscape:pageshadow="2"
     inkscape:window-width="2560"
     inkscape:window-height="1017"
     id="namedview16"
     showgrid="false"
     inkscape:zoom="0.0944"
     inkscape:cx="-2155.7203"
     inkscape:cy="1250"
     inkscape:window-x="-8"
     inkscape:window-y="-8"
     inkscape:window-maximized="1"
     inkscape:current-layer="svg14" />
  <path
     inkscape:connector-curvature="0"
     id="path1731"
     style="fill:#0075be;fill-opacity:1;stroke:#0075bf;stroke-width:0.43076229;stroke-miterlimit:4;stroke-dasharray:none;stroke-opacity:1"
     d="m 127.05138,151.79013 c 0,-7.46982 0.38194,-8.98538 2.54562,-10.10023 0.96596,-0.49774 1.28409,-0.56402 2.70691,-0.56402 0.88675,0 1.88737,0.0615 2.22357,0.13612 l 0.61121,0.13611 v -2.60566 -2.60568 l -0.98742,-0.12139 c -0.99821,-0.1229 -2.40353,0.0624 -3.42635,0.45153 -0.82121,0.31236 -2.00846,1.35339 -2.5451,2.23129 -0.25862,0.42308 -0.61831,0.77151 -0.79934,0.77429 -0.28645,0.004 -0.32911,-0.18995 -0.32911,-1.49896 v -1.50403 h -2.82116 -2.8212 v 9.87015 9.87014 h 2.8212 2.82116 z m -6.1186,4.61548 c -0.0508,-0.13154 -0.0697,-4.72336 -0.0426,-10.20364 l 0.0493,-9.96415 h 3.29134 3.29138 l 0.0555,1.15485 0.0555,1.15482 0.94104,-0.99457 c 1.22677,-1.29662 2.42783,-1.8226 4.40229,-1.92778 0.83014,-0.0457 1.73652,0.01 2.02187,0.12037 l 0.51718,0.20062 v 2.93718 2.93712 l -1.1755,-0.15947 c -3.38176,-0.45864 -5.32697,0.22245 -6.23518,2.18437 -0.3668,0.79236 -0.40114,1.26822 -0.48855,6.7743 l -0.094,5.9221 -3.24851,0.0513 c -2.49576,0.0406 -3.26978,-0.004 -3.34026,-0.18792 z m -51.96394,-6.30257 c 0.05953,-6.03795 0.06933,-6.17463 0.506628,-7.06253 0.662955,-1.34593 1.623585,-1.91351 3.239642,-1.91412 1.438278,-4.1e-4 2.059778,0.32708 2.709055,1.42918 0.351009,0.59572 0.382397,1.07166 0.470162,7.12445 l 0.09406,6.48612 h 2.821154 2.821154 l 0.09401,-6.20409 c 0.08436,-5.56617 0.130225,-6.27682 0.445631,-6.91128 1.119307,-2.25131 4.436647,-2.74784 5.779998,-0.86511 0.451014,0.63214 0.451116,0.63366 0.545159,7.30638 l 0.09406,6.6741 2.86815,0.0518 2.868195,0.0518 -0.005,-6.82 c -0.005,-8.45027 -0.189395,-9.56943 -1.908774,-11.52691 -1.685558,-1.919 -5.609152,-2.47769 -8.35146,-1.18921 -0.768532,0.36113 -1.83129,1.35985 -2.573086,2.41806 l -0.329474,0.46981 -0.422876,-0.56402 c -1.61335,-2.15202 -3.199497,-2.96334 -5.783026,-2.95816 -0.978274,0.002 -1.909608,0.11783 -2.40005,0.29814 -1.132355,0.41648 -2.433205,1.35553 -2.920773,2.10803 -0.656276,1.01301 -0.885704,0.83946 -0.885704,-0.66997 v -1.31601 h -2.821192 -2.821149 v 9.74485 c 0,5.35965 0.05638,9.80122 0.125349,9.87015 0.06897,0.0691 1.374685,0.12545 2.901514,0.12545 h 2.776144 z m -6.114527,6.40775 c -0.06897,-0.0691 -0.125349,-4.67967 -0.125349,-10.24614 V 136.1438 h 3.197298 3.197303 v 1.07319 1.07315 l 0.799337,-0.78162 c 2.810295,-2.74798 8.435683,-2.46711 10.641605,0.53127 l 0.539469,0.7333 0.754697,-0.89466 c 1.389509,-1.64722 3.651609,-2.45204 6.317534,-2.24761 3.453355,0.26462 5.349753,1.89899 6.267617,5.4011 0.311545,1.18869 0.357712,3.62584 0.269592,14.24565 l -0.01168,1.36746 -3.244295,-0.0513 -3.244345,-0.0513 -0.09401,-6.68284 c -0.08401,-5.96958 -0.129463,-6.73677 -0.425822,-7.18848 -0.520362,-0.79319 -1.2089,-1.1476 -2.200491,-1.13267 -1.291241,0.0203 -2.183259,0.51212 -2.787318,1.53924 l -0.510804,0.86855 -0.09401,6.2981 -0.09406,6.2981 h -3.197363 -3.197299 l -0.09558,-6.48613 c -0.09112,-6.1797 -0.114734,-6.52192 -0.500229,-7.24421 -0.503277,-0.94326 -1.180966,-1.31789 -2.319954,-1.28254 -1.511791,0.0457 -2.566402,0.84499 -3.035696,2.29743 -0.142465,0.44085 -0.249124,2.83463 -0.300726,6.74632 l -0.07995,6.06309 h -3.150201 c -1.732605,0 -3.206649,-0.0563 -3.275571,-0.12546 z m 103.278017,-0.1737 c 3.71636,-0.76662 5.63009,-2.6138 5.82563,-5.62305 0.23119,-3.55834 -1.36309,-5.11392 -6.53887,-6.38022 -3.18874,-0.78013 -3.64352,-1.04196 -3.72528,-2.1447 -0.0478,-0.64122 0.03,-0.86008 0.43491,-1.23567 1.0166,-0.9418 3.07894,-0.85535 4.63955,0.19453 l 0.97764,0.65762 1.70473,-1.70944 1.70477,-1.70937 -0.47016,-0.37585 c -1.97931,-1.58333 -5.57751,-2.33568 -8.59937,-1.79811 -2.85259,0.50738 -4.67282,1.68861 -5.64189,3.66123 -0.45457,0.92535 -0.52261,1.28494 -0.52146,2.75622 0,1.99162 0.35172,2.83869 1.6229,3.92636 0.9588,0.82036 2.24138,1.31987 4.90286,1.90939 2.14227,0.47438 3.41445,1.00509 3.60587,1.50374 0.2507,0.65305 0.10869,1.34511 -0.36781,1.79288 -0.42309,0.39769 -0.69695,0.46422 -2.14223,0.5207 -1.8896,0.0741 -2.80351,-0.2184 -4.02217,-1.28824 l -0.70593,-0.61958 -1.1879,1.30109 c -0.65335,0.71558 -1.41119,1.56625 -1.68405,1.89044 l -0.49612,0.58937 0.61278,0.51765 c 0.79177,0.6688 2.3846,1.37341 3.81014,1.68546 1.57189,0.34435 4.53684,0.33369 6.26151,-0.0204 z m -4.92349,0.65087 c -0.81568,-0.0828 -1.91597,-0.29203 -2.445,-0.46523 -2.06828,-0.67658 -3.998,-1.93261 -3.79227,-2.46844 0.16374,-0.42663 3.55568,-4.15029 3.7979,-4.16939 0.11839,-0.01 0.49922,0.24938 0.84634,0.5755 1.46741,1.37737 3.9249,1.89645 5.42713,1.14627 0.85751,-0.42816 0.98345,-1.15368 0.29433,-1.69552 -0.46087,-0.36213 -0.92299,-0.50485 -4.43205,-1.36578 -2.9308,-0.71918 -4.77289,-2.11053 -5.27832,-3.9868 -0.34228,-1.27047 -0.15562,-3.84287 0.35406,-4.87944 1.72685,-3.51232 7.15069,-5.05212 12.16937,-3.45482 1.52751,0.48605 3.32689,1.63802 3.43492,2.19879 0.0557,0.28899 -3.56112,3.92474 -3.90433,3.92474 -0.0955,0 -0.41068,-0.22247 -0.7005,-0.49521 -1.6478,-1.54782 -4.85267,-1.40723 -4.85267,0.21281 0,0.80904 0.70091,1.17899 3.56358,1.88095 3.15119,0.77268 4.34187,1.32913 5.42796,2.53665 1.05634,1.17436 1.32884,2.12744 1.22556,4.28626 -0.0918,1.91768 -0.52292,2.8616 -1.85807,4.0673 -1.88585,1.70315 -5.47992,2.5363 -9.27794,2.15086 z m -14.83691,-5.07314 c 1.35917,-0.65662 2.11648,-1.90869 2.11919,-3.50379 v -0.611 h -1.47007 c -2.59778,0 -4.5171,0.53369 -5.39043,1.49901 -0.50867,0.56219 -0.49967,1.7554 0.0172,2.27193 0.97733,0.977 3.09366,1.13104 4.72314,0.34385 z m -4.0016,0.70851 c -0.87265,-0.39768 -1.58933,-1.3542 -1.58933,-2.12103 0,-2.05165 2.17731,-3.14511 6.04941,-3.03804 l 1.94392,0.0539 -0.0117,1.34842 c -0.0148,1.73285 -0.57383,2.63427 -2.09628,3.3788 -1.23971,0.60633 -3.38208,0.79486 -4.29634,0.37787 z m 3.22873,3.37265 c 0.63994,-0.28746 1.51289,-0.88587 1.967,-1.34836 1.12792,-1.14882 1.30231,-1.09651 1.30231,0.39057 v 1.22201 h 2.63308 2.63302 v -5.99144 c 0,-7.76576 -0.27137,-9.46844 -1.85175,-11.62122 -2.36774,-3.22521 -9.92439,-3.50211 -14.40693,-0.52801 -0.57478,0.38143 -1.08297,0.75478 -1.12933,0.8297 -0.0463,0.0752 0.58176,0.79817 1.39582,1.6071 l 1.48005,1.47082 0.79954,-0.68409 c 2.85515,-2.44289 7.38563,-1.79319 8.27894,1.18732 0.36605,1.22128 0.23247,1.32165 -1.75928,1.32165 -7.68418,0 -11.64286,2.315 -11.63659,6.80497 0.005,2.72209 1.40083,4.59878 4.13688,5.55713 1.05826,0.37076 1.52741,0.42562 3.12593,0.36772 1.55299,-0.0569 2.08134,-0.15897 3.03131,-0.58551 z m -4.77786,0.99559 c -2.44615,-0.3022 -4.39769,-1.58393 -5.34677,-3.51126 -0.55718,-1.13144 -0.61701,-1.41388 -0.60944,-2.87745 0.007,-1.44065 0.0768,-1.76175 0.61779,-2.86027 0.65554,-1.331 1.42021,-2.06035 2.9825,-2.84475 1.80502,-0.90624 4.70627,-1.42191 8.00016,-1.42191 1.72812,0 1.83865,-0.0254 1.83865,-0.3855 0,-0.56808 -0.47376,-1.38518 -1.1169,-1.9261 -1.68044,-1.41348 -4.44061,-1.11108 -6.71994,0.7361 -0.43121,0.34944 -0.85619,0.63532 -0.94454,0.63532 -0.34807,0 -3.25552,-3.12321 -3.25552,-3.49708 0,-0.73899 2.83118,-2.37473 5.17212,-2.98822 1.58343,-0.41496 4.44103,-0.55894 6.06121,-0.30524 3.64864,0.57097 5.51382,2.1541 6.5703,5.57672 0.30952,1.00269 0.34578,1.85841 0.34578,8.17011 v 7.0501 l -2.96218,0.0518 -2.96224,0.0518 v -1.14723 -1.1472 l -0.48997,0.58211 c -1.30816,1.55401 -4.30678,2.41347 -7.18099,2.05821 z m -88.175219,-6.44335 c 1.528709,-0.89553 2.290141,-2.53417 2.141225,-4.60786 -0.199553,-2.77892 -1.909974,-4.39155 -4.663826,-4.39724 -2.923801,-0.005 -4.703558,1.85871 -4.693426,4.91748 0.0066,2.07948 0.822888,3.4598 2.534918,4.28824 1.320587,0.63899 3.399995,0.54984 4.681109,-0.20062 z m -4.873359,0.66006 c -1.832961,-0.83235 -2.786952,-2.47743 -2.794001,-4.81828 -0.0076,-2.65271 1.207386,-4.45799 3.437793,-5.10611 2.075229,-0.60302 4.664872,0.0883 5.77394,1.54213 1.110789,1.45574 1.37802,4.28189 0.569075,6.01845 -0.517853,1.11164 -1.692349,2.18838 -2.724247,2.49739 -1.131517,0.33876 -3.377069,0.26868 -4.26256,-0.13358 z m 5.082263,5.14502 c 3.124724,-0.65575 5.839987,-2.7033 7.104446,-5.35728 0.868883,-1.82365 1.158826,-3.35623 1.025006,-5.41795 -0.293465,-4.52085 -3.265855,-7.99783 -7.847345,-9.17915 -1.471585,-0.3794 -4.37539,-0.42004 -5.830377,-0.0813 -1.832072,0.42663 -3.991104,1.58982 -5.208465,2.80669 -1.986047,1.98528 -2.878847,4.24857 -2.878847,7.29805 0,4.87222 2.922342,8.5684 7.781236,9.8418 1.63773,0.42918 4.058456,0.46626 5.854346,0.0894 z m -4.267416,0.64868 c -6.71859,-0.77196 -10.855161,-6.20571 -9.680406,-12.71616 0.712297,-3.94729 3.43957,-6.93541 7.459187,-8.17254 1.852013,-0.57002 5.496942,-0.61446 7.24093,-0.0883 3.829449,1.15542 6.604866,3.88527 7.507275,7.38397 0.616483,2.39013 0.30291,5.73972 -0.736682,7.86904 -1.940365,3.97436 -6.739475,6.30419 -11.790304,5.72386 z m -13.73902,-0.64889 c 1.198824,-0.28239 2.96589,-1.10158 3.796345,-1.75956 l 0.459902,-0.36467 -1.867523,-1.9576 -1.867523,-1.9576 -0.813227,0.57302 c -0.694805,0.48961 -1.018794,0.58338 -2.224459,0.64422 -2.318594,0.11682 -3.960559,-0.82691 -4.832265,-2.77795 -0.564377,-1.26319 -0.542132,-3.53025 0.04774,-4.86237 1.205456,-2.72254 5.035272,-3.76948 7.182505,-1.96344 l 0.600352,0.50485 1.852905,-1.9518 c 2.118303,-2.2314 2.113554,-2.15232 0.191885,-3.17142 -1.717673,-0.91092 -3.091153,-1.23344 -5.208624,-1.22317 -3.25818,0.0152 -5.950729,1.05424 -7.971764,3.07446 -1.941407,1.94063 -2.84439,4.23658 -2.840474,7.22207 0.005,3.00518 0.841267,5.11332 2.805231,7.06263 1.420521,1.40998 2.980406,2.29728 4.941651,2.81087 1.671779,0.4378 4.125869,0.47945 5.747361,0.097 z m -4.220897,0.64087 c -4.668265,-0.5433 -8.135978,-3.3496 -9.386283,-7.59593 -0.390472,-1.32597 -0.438469,-4.37921 -0.09167,-5.82799 0.549755,-2.29667 2.23897,-4.67627 4.281672,-6.0316 0.591895,-0.39261 1.799333,-0.96775 2.683153,-1.27782 1.443967,-0.50637 1.845491,-0.56494 3.957947,-0.5753 2.006048,-0.01 2.557215,0.0559 3.756771,0.44848 1.52751,0.49977 3.672284,1.83946 3.672284,2.29341 0,0.15542 -0.912536,1.24725 -2.027871,2.42593 -1.773903,1.87471 -2.068337,2.11392 -2.350967,1.91015 -1.694803,-1.22194 -2.485997,-1.46026 -3.884171,-1.17014 -1.193709,0.24786 -2.318547,0.93864 -2.893366,1.77724 -1.216941,1.7753 -1.021979,4.92697 0.40063,6.47535 0.665723,0.72462 2.16535,1.33425 3.287161,1.33629 1.016336,0.002 2.18561,-0.44543 2.661221,-1.01844 0.135,-0.16253 0.385241,-0.2956 0.556023,-0.2956 0.273808,0 1.819958,1.48255 3.773372,3.61817 l 0.644057,0.70415 -0.553255,0.57925 c -1.529648,1.60157 -5.314509,2.59359 -8.486702,2.2244 z m 79.967038,-6.32589 c 1.54301,-0.79465 2.34026,-2.22392 2.34685,-4.20747 0.0107,-3.05877 -1.76962,-4.92347 -4.69344,-4.91748 -1.9816,0.004 -3.33352,0.77709 -4.2022,2.40282 -0.59643,1.11621 -0.57978,3.60344 0.0326,4.84616 0.48367,0.98187 1.32956,1.72651 2.42538,2.13516 0.99305,0.37025 3.13186,0.23465 4.09109,-0.25903 z m -4.39403,0.63457 c -0.99483,-0.36009 -2.09857,-1.40626 -2.58521,-2.45085 -0.35517,-0.76251 -0.44482,-1.26442 -0.43969,-2.46179 0.0107,-2.43304 0.68442,-3.7296 2.43368,-4.68125 2.70572,-1.47209 6.18721,-0.43832 7.34735,2.18203 0.58734,1.32643 0.61194,3.59953 0.0526,4.85134 -0.46778,1.04684 -1.4118,2.01266 -2.41049,2.46616 -0.89035,0.40429 -3.39295,0.45812 -4.39821,0.0944 z m -2.65882,8.62357 c 0,-6.35782 -0.0264,-6.24172 1.17908,-5.10484 0.75793,0.71457 2.0004,1.34614 3.18592,1.61949 1.04301,0.24024 3.21291,0.23871 4.26496,-0.004 4.14383,-0.95494 6.98592,-5.11681 6.97762,-10.21795 -0.005,-3.24613 -1.03368,-5.86917 -3.02281,-7.71006 -1.37724,-1.27457 -2.81065,-1.95764 -4.84427,-2.30844 -2.63882,-0.45508 -4.93392,0.19097 -6.76661,1.90431 -0.50537,0.47234 -1.01594,0.85916 -1.13445,0.85916 -0.13998,0 -0.21566,-0.42866 -0.21566,-1.22206 v -1.22193 h -2.72711 -2.727137 v 14.44489 c 0,7.9447 0.05643,14.50132 0.125401,14.57024 0.06892,0.0691 1.380788,0.12545 2.915206,0.12545 h 2.78982 z m -6.076904,5.98904 c -0.07131,-0.0711 -0.129717,-6.79904 -0.129717,-14.95056 V 136.1438 h 3.103271 3.10332 v 1.05354 1.05348 l 0.65082,-0.57118 c 2.68628,-2.35766 6.45496,-2.74743 10.03618,-1.03795 2.52171,1.20372 4.40944,3.6487 5.13134,6.64626 0.35182,1.46067 0.29981,4.70634 -0.0994,6.20409 -1.10448,4.14349 -4.11412,7.06386 -7.72563,7.49638 -2.64535,0.31693 -5.77367,-0.41292 -6.89689,-1.60866 l -0.43812,-0.46626 -0.094,5.51451 -0.094,5.51446 -3.20868,0.0513 c -1.764841,0.0305 -3.267078,-0.005 -3.338402,-0.0782 z" />
  <path
     inkscape:connector-curvature="0"
     id="path1703"
     style="fill:#0075be;fill-opacity:1;stroke:#0075bf;stroke-width:0.43076229;stroke-miterlimit:4;stroke-dasharray:none;stroke-opacity:1"
     d="M 172.00181,104.18331 V 84.443015 h -4.23175 -4.23176 v 19.740295 19.74035 h 4.23176 4.23175 z m -22.42553,-4.03013 c 1.15094,-0.360608 2.24905,-1.251051 2.61141,-2.117988 0.37762,-0.903496 0.3242,-2.754435 -0.10377,-3.588509 -1.03357,-2.014678 -2.54786,-2.48357 -8.02083,-2.48357 h -3.65825 v 4.348632 4.348625 l 4.09068,-0.0985 c 3.05011,-0.0737 4.34255,-0.17725 5.08074,-0.40835 z m -9.59456,0.72513 c -0.0776,-0.0777 -0.1411,-2.19874 -0.1411,-4.712839 v -4.571192 l 0.48348,-0.121388 c 0.75861,-0.190467 7.77486,0.04572 8.87646,0.2956 2.07355,0.474878 3.45999,1.914214 3.70096,3.841941 0.1969,1.575404 -0.18057,2.851343 -1.12176,3.792275 -1.28378,1.283263 -2.03999,1.443913 -7.23717,1.537523 -2.43092,0.0457 -4.48328,0.0152 -4.56086,-0.062 z m -0.096,15.10222 0.0493,-7.94313 h 2.35091 2.35098 l 4.13771,7.93881 4.13767,7.93886 5.02833,0.004 5.02834,0.004 -4.8873,-8.09225 c -2.68801,-4.45072 -4.88725,-8.23777 -4.88725,-8.41563 0,-0.23363 0.26441,-0.386 0.9505,-0.54914 4.82532,-1.14577 7.77215,-5.61944 7.45526,-11.318221 -0.32485,-5.842355 -3.3305,-9.217448 -9.4351,-10.595019 -1.55571,-0.350962 -2.48856,-0.389554 -11.14865,-0.460668 l -9.45088,-0.07774 v 19.754118 19.75411 h 4.13569 4.13563 z m -8.79079,8.08742 c -0.0568,-0.23465 -0.0799,-9.30947 -0.0517,-20.16663 l 0.0517,-19.740295 9.02773,-0.05536 c 5.8084,-0.03555 9.56423,0.02035 10.53232,0.150344 6.10848,0.835391 9.79277,3.636963 11.00297,8.366915 0.46656,1.823311 0.50744,5.243347 0.0843,7.038057 -0.70823,3.003559 -2.74679,5.611929 -5.36703,6.867139 -0.75851,0.36315 -1.66191,0.71365 -2.00746,0.77846 -0.37574,0.0706 -0.60568,0.21535 -0.57195,0.36011 0.0315,0.13307 2.13,3.6784 4.66434,7.87811 l 4.60786,7.6359 0.0483,-19.55699 0.0483,-19.557001 h 4.60791 4.60784 l -0.0483,20.163331 -0.0483,20.16332 -9.70854,0.0508 c -8.06649,0.0406 -9.74499,0.004 -9.92387,-0.21078 -0.11839,-0.14272 -2.02569,-3.71777 -4.2384,-7.94481 l -4.02316,-7.68552 -1.99049,-0.0533 -1.99049,-0.0533 -0.0493,7.94948 -0.0493,7.94947 -4.55648,0.0508 -4.55643,0.0508 z M 71.888155,102.39312 c -1.246962,-3.15608 -2.32413,-5.672974 -2.393732,-5.593133 -0.06958,0.07978 -0.783205,1.837275 -1.585731,3.905283 -0.802571,2.06801 -1.782151,4.58491 -2.176833,5.59309 l -0.717626,1.83305 h 4.570571 4.570519 z m -7.275811,5.78527 c 0.0056,-0.68795 4.619708,-12.170833 4.913356,-12.227362 0.22129,-0.04058 0.864555,1.385548 2.67177,5.931802 1.309205,3.29337 2.380313,6.13116 2.380313,6.30623 0,0.29102 -0.426432,0.31845 -4.984,0.31845 -4.622361,0 -4.983887,-0.0254 -4.981439,-0.32912 z m -4.532819,11.6092 c 0.875099,-2.22318 1.681073,-4.10479 1.791084,-4.18139 0.110011,-0.0767 3.707584,-0.11885 7.99453,-0.0939 l 7.794447,0.0457 1.69762,4.18306 1.697676,4.18305 h 4.472618 4.472617 v -0.53268 c 0,-0.33979 0.09869,-0.53264 0.272284,-0.53264 0.149729,0 0.371579,0.23973 0.493018,0.53264 l 0.220783,0.53268 h 3.926778 3.926829 v -14.11406 c 0,-13.233253 0.02031,-14.110139 0.322667,-14.051886 0.197015,0.03555 3.668434,5.516906 8.912724,14.067016 l 8.59002,14.00485 5.66331,0.0507 5.66323,0.0508 V 104.18859 84.4455 h -4.23175 -4.23171 v 13.832019 c 0,12.536821 -0.0285,13.826321 -0.29869,13.771211 -0.16431,-0.0356 -4.08227,-6.23669 -8.70661,-13.784982 l -8.40791,-13.72423 -5.869404,-0.05076 -5.869328,-0.05076 v 19.084942 c 0,15.45017 -0.04571,19.08495 -0.242421,19.08495 -0.133374,0 -0.630687,-0.90944 -1.105152,-2.02103 -0.474529,-1.11159 -2.579195,-5.95502 -4.677136,-10.76319 -2.097942,-4.80818 -5.435127,-12.464591 -7.416007,-17.014249 l -3.601591,-8.272147 -3.51888,-0.05129 c -3.507452,-0.05076 -3.519408,-0.05076 -3.68289,0.375848 -0.165727,0.431712 -6.091031,14.13701 -12.90506,29.849668 -2.040301,4.70477 -3.751864,8.70371 -3.803502,8.8865 -0.08817,0.31236 0.182945,0.32963 4.485513,0.28188 l 4.579346,-0.0507 z M 38.937192,99.511042 c 1.791551,-0.807711 2.565878,-1.925285 2.565878,-3.703344 0,-1.186899 -0.348368,-1.925189 -1.26482,-2.680279 -1.152981,-0.950023 -2.355198,-1.164306 -6.532547,-1.164306 h -3.702207 v 3.916759 c 0,2.154206 0.06349,3.981629 0.141095,4.060913 0.0776,0.07925 1.876035,0.110205 3.996635,0.069 3.504734,-0.06806 3.941136,-0.113732 4.795981,-0.498724 z m -9.219515,0.688358 c -0.05379,-0.14018 -0.07492,-2.156284 -0.04723,-4.480473 l 0.05079,-4.225819 3.186856,-0.05183 c 3.727895,-0.0605 5.349809,0.12443 6.763129,0.771292 1.850502,0.846817 2.672603,2.609991 2.200434,4.719094 -0.284321,1.270049 -1.076327,2.208336 -2.421248,2.868509 -1.071006,0.525727 -1.103847,0.529387 -5.356387,0.591347 -3.468755,0.0508 -4.297229,0.0152 -4.376491,-0.19198 z m 10.827852,15.86616 c 1.117265,-0.44188 2.006565,-1.24263 2.527917,-2.27565 0.237951,-0.47132 0.304029,-0.971 0.251461,-1.90076 -0.113719,-2.01143 -1.098884,-2.99543 -3.669206,-3.66464 -0.80534,-0.20976 -2.168744,-0.28138 -5.365941,-0.28138 h -4.286264 v 4.34066 4.34065 l 4.748986,-0.0731 c 4.349913,-0.067 4.836648,-0.10767 5.793047,-0.48605 z m -10.828319,0.67686 c -0.05327,-0.13865 -0.07416,-2.28112 -0.04622,-4.76068 l 0.05079,-4.50836 3.385424,-0.0569 c 6.495897,-0.10919 9.065534,0.5529 10.264048,2.64454 0.662325,1.15592 0.640135,3.10951 -0.04875,4.28448 -0.635599,1.08411 -0.963032,1.36649 -2.321264,2.00223 l -1.123319,0.52577 -5.031773,0.0605 c -4.078822,0.0508 -5.050052,0.01 -5.128579,-0.19199 z m 13.493247,6.57537 c 4.508384,-1.22734 7.147471,-3.31851 8.432866,-6.68197 0.510697,-1.33638 0.697365,-4.17914 0.375997,-5.72651 -0.722064,-3.47677 -3.625086,-6.33421 -7.277797,-7.16345 -0.644524,-0.14627 -1.102435,-0.35096 -1.102435,-0.49266 0,-0.13308 0.406827,-0.40176 0.904075,-0.59719 2.269464,-0.89111 4.104305,-2.56708 5.070886,-4.631837 0.507239,-1.083598 0.5932,-1.501454 0.664519,-3.23216 0.249886,-6.062687 -3.142161,-9.321575 -10.563383,-10.148786 -1.00412,-0.11174 -5.495225,-0.200619 -10.17445,-0.200619 h -8.376839 v 19.750762 19.75075 l 10.109129,-0.0645 10.109185,-0.0645 z m -22.297351,1.04454 c -0.06897,-0.0691 -0.12535,-9.16361 -0.12535,-20.21035 V 84.067017 l 9.16876,0.0011 c 11.32221,0.0011 12.941249,0.186398 16.10529,1.839299 2.694742,1.407853 4.247785,3.693899 4.655786,6.853029 0.553878,4.289212 -1.200236,7.858015 -4.791858,9.749125 l -1.284349,0.67627 1.340168,0.43069 c 1.532421,0.49267 3.626965,1.87587 4.466404,2.94983 1.573984,2.01377 2.176159,3.80543 2.189735,6.51562 0.005,1.01672 0.06836,1.69354 0.140484,1.504 0.07217,-0.18945 3.026147,-7.02805 6.564455,-15.19679 3.538256,-8.168738 6.476784,-14.959649 6.529991,-15.090996 0.07476,-0.184363 0.974724,-0.227025 3.958365,-0.187918 l 3.861666,0.05076 8.150646,18.706314 8.150702,18.70627 0.005,-18.75579 0.005,-18.755835 6.228824,0.05076 6.228825,0.05076 8.30014,13.549868 8.30014,13.549937 0.0483,-13.596914 0.0483,-13.596909 h 4.60754 4.60749 l -0.0483,20.163333 -0.0483,20.16333 h -5.9099 -5.90986 l -8.57211,-13.96269 -8.572129,-13.962659 -0.09406,13.962659 -0.09406,13.96263 -4.189463,0.0508 -4.189413,0.0508 -0.171466,-0.42663 -0.171417,-0.42664 -0.01219,0.42613 -0.01218,0.42612 -4.822403,-0.0508 -4.822396,-0.0508 -1.696366,-4.18306 -1.696423,-4.18305 -7.634042,3.6e-4 -7.633997,3.5e-4 -1.485791,3.80666 c -0.817194,2.09365 -1.602019,3.99695 -1.744038,4.22962 -0.25715,0.42105 -0.279193,0.42308 -5.143932,0.42308 -5.685804,0 -5.288663,0.21586 -4.209566,-2.28641 1.131105,-2.62268 1.130948,-2.55585 0.005,-1.52638 -2.089378,1.90884 -5.529888,3.21992 -9.492691,3.6174 -2.120132,0.21281 -18.881383,0.27427 -19.085589,0.0701 z" />
  <path
     inkscape:connector-curvature="0"
     style="fill:#d03642;fill-opacity:1;stroke-width:0.18804003"
     d="m 20.713806,72.113468 c -0.16466,-0.429175 -0.135202,-3.890609 0.03555,-4.158883 0.111534,-0.175218 1.852118,-0.143725 7.755288,0.141199 4.186329,0.20215 23.861354,1.127641 43.722317,2.057093 19.860961,0.929453 36.322409,1.720459 36.581039,1.757841 0.25861,0.03555 -0.24924,0.09648 -1.12846,0.131037 l -1.59866,0.06296 1.59866,0.117833 c 0.87923,0.065 -18.302654,0.133575 -42.626415,0.152882 -40.174406,0.03052 -44.235472,0.0096 -44.33917,-0.262587 z"
     id="path1701" />
  <path
     inkscape:connector-curvature="0"
     style="fill:#d03642;fill-opacity:1;stroke-width:0.18804003"
     d="M 68.55933,71.82336 97.053027,71.797982 86.050524,71.261286 C 65.791329,70.273013 22.960816,68.273112 22.057265,68.273219 l -0.893379,4.3e-5 v 1.910776 1.910712 l 9.450872,-0.124441 c 5.197972,-0.06853 22.273018,-0.135095 37.944572,-0.148298 z"
     id="path1699" />
  <path
     inkscape:connector-curvature="0"
     style="fill:#fbba00;fill-opacity:1;stroke-width:0.18804003"
     d="m 101.42582,71.896647 c -0.49133,-0.04058 -1.29536,-0.04058 -1.786705,0 -0.491392,0.04058 -0.0893,0.07057 0.893345,0.07057 0.9827,0 1.38475,-0.03052 0.89336,-0.07057 z"
     id="path1697" />
  <path
     inkscape:connector-curvature="0"
     style="fill:#d03642;fill-opacity:1;stroke-width:0.18804003"
     d="m 122.96843,72.175832 c -0.0986,-0.129505 -0.50165,-1.165622 -0.89562,-2.303007 C 115.87292,51.971273 102.3721,38.585809 87.273,35.370396 84.32215,34.741973 79.318361,34.648223 76.294725,35.164702 c -10.888054,1.859622 -19.72928,9.355295 -26.112291,22.13824 -1.379169,2.761951 -1.862618,3.575251 -1.989963,3.347755 -0.115394,-0.206197 0.07766,-1.017313 0.614608,-2.582867 3.472879,-10.124852 8.926752,-17.680052 16.202923,-22.445566 10.420325,-6.824781 23.670725,-7.301853 35.804618,-1.289045 12.52666,6.207483 21.65914,18.151085 25.48562,33.330649 0.11072,0.439337 0.30392,0.799433 0.42922,0.79999 1.02877,0.0043 44.77145,3.383778 44.8528,3.465085 0.0583,0.05847 -0.1831,0.114279 -0.53654,0.124944 -0.59602,0.01521 -0.6085,0.03052 -0.17244,0.169136 0.25863,0.08277 -10.37385,0.158975 -23.62766,0.169126 -19.07498,0.01521 -24.13527,-0.03052 -24.27722,-0.21636 z"
     id="path1695" />
  <path
     inkscape:connector-curvature="0"
     style="fill:#d03642;fill-opacity:1;stroke-width:0.18804003"
     d="m 168.5694,71.900149 c -0.28448,-0.04058 -0.75,-0.04058 -1.03446,0 -0.28448,0.04058 -0.0517,0.07817 0.51723,0.07817 0.56892,0 0.80169,-0.03555 0.51723,-0.07817 z"
     id="path1693" />
  <path
     inkscape:connector-curvature="0"
     style="fill:#d03642;fill-opacity:1;stroke:#d03642;stroke-width:0.18804003;stroke-opacity:1"
     d="m 164.00849,71.710956 c -0.41374,-0.04058 -9.07624,-0.696988 -19.24992,-1.460152 -10.17371,-0.763122 -18.53153,-1.421357 -18.57289,-1.462701 -0.0411,-0.04058 -0.36472,-1.125552 -0.71851,-2.409265 -1.77762,-6.450271 -4.38234,-12.008612 -8.00774,-17.087845 -10.88309,-15.247528 -29.038619,-22.17877 -44.526533,-16.998966 -8.836893,2.955406 -16.046546,9.539306 -20.793444,18.988758 -0.820378,1.633144 -2.38919,5.248926 -2.386631,5.500698 3.91e-4,0.06553 0.488091,-0.769215 1.08317,-1.8549 3.357597,-6.125866 7.947381,-11.52869 12.657781,-14.900068 2.099145,-1.502418 5.98556,-3.483226 8.356893,-4.25939 14.097775,-4.614164 30.377844,1.970282 41.561214,16.809409 4.09036,5.427411 7.46143,11.982901 9.78858,19.035285 0.0615,0.186398 4.37008,0.228557 20.81899,0.20366 11.40773,-0.01521 20.40283,-0.06446 19.98904,-0.104084 z"
     id="path1691" />
  <path
     inkscape:connector-curvature="0"
     style="fill:#fbba00;fill-opacity:1;stroke-width:0.18804003"
     d="m 61.036234,66.875657 c 0,-0.487578 1.295055,-4.55529 2.080561,-6.534931 1.031477,-2.599625 2.533505,-5.657273 3.931943,-8.004324 3.28455,-5.512584 8.804358,-11.418984 13.911218,-14.885644 l 1.147085,-0.778659 1.924743,0.207729 c 3.006826,0.324544 6.344533,1.148253 6.344533,1.565392 0,0.132557 -0.993155,0.78562 -2.206916,1.451779 -3.067703,1.683579 -7.883056,4.906252 -10.728065,7.179598 -2.773954,2.216677 -7.681718,7.040797 -9.515883,9.353828 -2.090262,2.63599 -3.846469,5.396517 -5.168986,8.125102 -1.115443,2.30139 -1.720233,3.117025 -1.720233,2.31998 z"
     id="path1689" />
  <path
     inkscape:connector-curvature="0"
     style="fill:#fbba00;fill-opacity:1;stroke-width:0.18804003"
     d="m 64.945103,59.83593 c 4.852368,-7.365289 13.426312,-14.963054 22.708115,-20.122642 1.102755,-0.613035 2.045049,-1.15455 2.093975,-1.203465 0.149881,-0.149829 -3.875816,-1.031898 -5.671389,-1.242679 l -1.692558,-0.198584 -0.98031,0.60993 c -3.142893,1.955461 -8.244999,6.785685 -10.922041,10.340013 -3.065774,4.0704 -5.796862,9.095396 -7.433078,13.676289 -1.19893,3.356601 -1.210521,3.500541 -0.121439,1.508511 0.535711,-0.979846 1.444125,-2.495103 2.018735,-3.367266 z"
     id="path1687" />
  <path
     inkscape:connector-curvature="0"
     style="fill:#8dc89a;fill-opacity:1;stroke-width:0.18804003"
     d="m 137.30159,57.977988 c -4.1207,-8.701986 -10.0166,-15.517676 -16.73968,-19.351242 -4.07392,-2.323032 -8.24704,-3.540161 -13.44224,-3.920624 -1.68165,-0.122909 -1.87405,-0.182843 -3.40949,-1.05536 -0.895,-0.508662 -2.45729,-1.298501 -3.47179,-1.75525 -1.786509,-0.804262 -2.421322,-1.396213 -1.523037,-1.420189 0.223577,-0.0054 1.379867,-0.08331 2.569437,-0.172177 7.33963,-0.547266 14.84194,1.432932 20.96476,5.533454 4.24842,2.845197 7.43643,6.146029 10.62965,11.005754 2.42067,3.683951 6.05777,12.028218 5.70063,13.078299 -0.12885,0.378889 -0.30743,0.107157 -1.27824,-1.942772 z"
     id="path1685" />
  <path
     inkscape:connector-curvature="0"
     style="fill:#8dc89a;fill-opacity:1;stroke-width:0.18804003"
     d="m 138.35896,59.31173 c -0.22169,-0.380924 -0.27523,-0.259032 -0.0938,0.213822 0.0646,0.168119 0.1569,0.265628 0.20535,0.217387 0.0487,-0.05076 0,-0.242273 -0.11159,-0.431209 z"
     id="path1683" />
  <path
     inkscape:connector-curvature="0"
     style="fill:#8dc89a;fill-opacity:1;stroke-width:0.18804003"
     d="m 137.23173,56.420263 c -2.5334,-6.69761 -5.6314,-11.634745 -10.07989,-16.063924 -5.16503,-5.142572 -10.87986,-8.080513 -18.34395,-9.43036 -1.91409,-0.346379 -8.24181,-0.473357 -9.303018,-0.186901 -0.523857,0.141198 -0.410941,0.220932 1.880808,1.325303 1.341,0.64621 2.81901,1.417705 3.28449,1.714419 0.76723,0.489109 1.0602,0.552181 3.13365,0.675711 5.9923,0.357044 11.71314,2.524657 16.67322,6.317896 1.66013,1.269599 4.65469,4.194541 6.2685,6.122771 1.82879,2.185088 4.4062,6.101344 5.80292,8.817174 0.62019,1.20595 1.14671,2.173503 1.17015,2.150084 0.0233,-0.02538 -0.19569,-0.672348 -0.48687,-1.442173 z"
     id="path1681" />
  <path
     style="opacity:0.894;fill:#0075be;fill-opacity:1;stroke:#0075bf;stroke-width:0.43076229;stroke-linecap:round;stroke-linejoin:round;stroke-miterlimit:4;stroke-dasharray:none;stroke-opacity:1;paint-order:stroke fill markers"
     d="M 163.59096,104.10138 V 84.54302 h 4.19108 4.19108 v 19.55836 19.55832 h -4.19108 -4.19108 z"
     id="path1795"
     inkscape:connector-curvature="0" />
  <path
     style="opacity:0.894;fill:#0075be;fill-opacity:1;stroke:#0075bf;stroke-width:0.43076229;stroke-linecap:round;stroke-linejoin:round;stroke-miterlimit:4;stroke-dasharray:none;stroke-opacity:1;paint-order:stroke fill markers"
     d="M 131.55485,104.20713 V 84.614882 l 8.64364,0.0054 c 4.75401,0.0032 9.53273,0.137632 10.61935,0.297624 4.36421,0.642697 7.94533,2.801829 9.41047,5.673689 2.11203,4.139982 1.36814,10.369715 -1.61955,13.562715 -0.91161,0.97431 -3.6401,2.52126 -4.44684,2.52126 -0.25552,0 -0.6273,0.19605 -0.82624,0.43579 -0.27716,0.33419 0.72125,2.23835 4.27254,8.14968 2.54877,4.24268 4.71117,7.90326 4.80531,8.1346 0.13525,0.33217 -0.84289,0.40125 -4.66206,0.32913 l -4.83327,-0.0914 -4.01976,-7.73813 -4.01976,-7.7381 -2.54588,-0.096 -2.54593,-0.0959 v 7.91657 7.91661 h -4.116 -4.11602 z m 17.94587,-3.44792 c 0.83404,-0.19249 1.70963,-0.73132 2.38728,-1.469047 0.91577,-0.99701 1.07017,-1.407842 1.07017,-2.847842 0,-2.138454 -0.7481,-3.420592 -2.48698,-4.262387 -1.11411,-0.539288 -2.14696,-0.667027 -5.93425,-0.733857 l -4.58539,-0.08074 -0.0911,4.856888 -0.0911,4.856935 4.20715,-0.005 c 2.31393,-0.004 4.79986,-0.14475 5.52428,-0.31185 z"
     id="path1805"
     inkscape:connector-curvature="0" />
  <path
     style="opacity:0.894;fill:#0075be;fill-opacity:1;stroke:#0075bf;stroke-width:0.43076229;stroke-linecap:round;stroke-linejoin:round;stroke-miterlimit:4;stroke-dasharray:none;stroke-opacity:1;paint-order:stroke fill markers"
     d="m 90.735488,123.16248 c -0.223628,-0.41801 -0.340851,-7.15554 -0.340851,-19.59226 V 84.614882 l 5.844741,0.01521 5.844752,0.01521 3.42476,5.665005 c 8.68233,14.361913 13.61882,22.029703 13.89843,21.588393 0.15583,-0.24582 0.28559,-6.48531 0.28833,-13.865342 l 0.005,-13.418221 h 4.11602 4.11605 v 19.592243 19.59224 h -5.5546 -5.5546 l -6.01716,-9.79609 c -7.76658,-12.6443 -11.291991,-18.192844 -11.559222,-18.192844 -0.517696,0 -0.611759,2.249991 -0.61599,14.735364 l -0.0047,13.25356 h -3.775161 c -3.395389,0 -3.809428,-0.064 -4.116016,-0.6369 z"
     id="path1807"
     inkscape:connector-curvature="0" />
  <path
     style="opacity:0.894;fill:#0075be;fill-opacity:1;stroke:#0075bf;stroke-width:0.43076229;stroke-linecap:round;stroke-linejoin:round;stroke-miterlimit:4;stroke-dasharray:none;stroke-opacity:1;paint-order:stroke fill markers"
     d="m 49.563701,123.68921 c 0,-0.0604 3.770422,-8.84008 8.378719,-19.50996 l 8.378718,-19.39975 3.417742,-0.09295 3.417787,-0.09295 0.42186,0.9161 c 0.232009,0.503832 3.902821,8.917628 8.157382,18.69728 4.254525,9.77969 7.871714,17.94767 8.038183,18.15108 0.166438,0.20366 0.208542,0.61512 0.0935,0.91483 -0.182285,0.47489 -0.756338,0.53319 -4.476874,0.45355 l -4.267719,-0.0914 -1.630828,-3.9383 c -0.896965,-2.16609 -1.811431,-4.05308 -2.032138,-4.19332 -0.572132,-0.36365 -14.190563,-0.32657 -15.157662,0.0406 -0.63941,0.24328 -1.129263,1.12261 -2.384078,4.28067 l -1.57933,3.97466 h -4.387641 c -2.413209,0 -4.387625,-0.0508 -4.387625,-0.11022 z m 25.025408,-15.59066 c 0,-0.78501 -4.249746,-11.367888 -4.792075,-11.933539 -0.386054,-0.402769 -0.49383,-0.356038 -0.764682,0.329117 -0.173447,0.438823 -0.785669,1.909244 -1.360544,3.267519 -1.707307,4.033933 -3.267018,8.474993 -3.051988,8.690053 0.110315,0.11021 2.398561,0.20062 5.084954,0.20062 4.357161,0 4.884335,-0.06 4.884335,-0.55392 z"
     id="path1809"
     inkscape:connector-curvature="0" />
  <path
     style="opacity:0.894;fill:#0075be;fill-opacity:1;stroke:#0075bf;stroke-width:0.43076229;stroke-linecap:round;stroke-linejoin:round;stroke-miterlimit:4;stroke-dasharray:none;stroke-opacity:1;paint-order:stroke fill markers"
     d="M 21.24547,104.20713 V 84.614882 h 8.861638 c 9.713497,0 12.579711,0.328614 15.419799,1.767746 3.21149,1.627405 4.522183,3.983503 4.51717,8.12008 -0.004,2.097067 -0.140282,2.713144 -0.89379,3.998987 -1.043387,1.780395 -2.349377,2.954345 -4.190145,3.766485 -1.601023,0.70639 -1.695594,1.31241 -0.253389,1.6237 2.647503,0.57144 5.40297,2.78507 6.540617,5.25447 0.42765,0.92823 0.608,2.09498 0.610819,3.9514 0.0066,4.26731 -1.631924,6.89523 -5.517166,8.84906 -3.411048,1.71539 -4.535688,1.85257 -15.1855,1.85257 h -9.910079 z m 20.154466,12.12115 c 3.470533,-2.02686 3.380974,-6.70511 -0.15689,-8.19677 -1.074323,-0.45304 -2.580034,-0.61913 -6.579309,-0.7263 l -5.186179,-0.13865 v 4.78496 c 0,4.27148 0.06181,4.80356 0.576241,4.95836 0.316928,0.0955 2.756016,0.12343 5.420203,0.062 4.046775,-0.0929 5.022021,-0.21535 5.925959,-0.74331 z M 39.691568,99.758595 c 1.565938,-0.798877 2.298667,-2.096607 2.298667,-4.071161 0,-1.806038 -1.08838,-3.260815 -2.89202,-3.865519 -0.697954,-0.234136 -2.992976,-0.420534 -5.340042,-0.433748 l -4.116016,-0.02538 -0.09163,4.527609 -0.09158,4.527614 h 4.467711 c 3.825173,0 4.654272,-0.095 5.764935,-0.661794 z"
     id="path1811"
     inkscape:connector-curvature="0" />
  <path
     style="opacity:0.894;fill:#0075be;fill-opacity:1;stroke:#0075bf;stroke-width:0.43076229;stroke-linecap:round;stroke-linejoin:round;stroke-miterlimit:4;stroke-dasharray:none;stroke-opacity:1;paint-order:stroke fill markers"
     d="m 28.269871,155.78877 c -2.898055,-1.00153 -5.286549,-3.26254 -6.225299,-5.89315 -0.61278,-1.71706 -0.5755,-5.2533 0.07553,-7.16397 0.776232,-2.27817 3.354656,-4.81812 5.805658,-5.71904 2.517532,-0.92539 5.833577,-0.93722 8.259667,-0.0305 2.789619,1.04373 2.857011,1.30851 0.868339,3.41126 l -1.704015,1.80187 -1.042757,-0.63584 c -2.841896,-1.73285 -6.754865,0.29255 -7.275735,3.76581 -0.665881,4.44046 3.28065,7.74734 7.031218,5.89173 l 1.301409,-0.64391 1.721131,1.74275 c 2.017963,2.04338 1.937335,2.34918 -0.89959,3.41059 -2.253278,0.84306 -5.579115,0.86892 -7.915566,0.0615 z"
     id="path1813"
     inkscape:connector-curvature="0" />
  <path
     style="opacity:0.894;fill:#0075be;fill-opacity:1;stroke:#0075bf;stroke-width:0.43076229;stroke-linecap:round;stroke-linejoin:round;stroke-miterlimit:4;stroke-dasharray:none;stroke-opacity:1;paint-order:stroke fill markers"
     d="m 46.009086,155.7937 c -4.563531,-1.62635 -7.217494,-6.13853 -6.535833,-11.11197 0.417544,-3.04638 2.414184,-5.73367 5.374502,-7.23365 1.582891,-0.80202 2.404905,-0.9906 4.715946,-1.08172 3.744732,-0.14779 6.054167,0.68846 8.410751,3.04506 1.981542,1.98151 2.784839,3.98446 2.784839,6.94379 0,4.00229 -1.976416,7.21379 -5.500563,8.93799 -2.473512,1.21018 -6.627473,1.43497 -9.249642,0.50029 z m 5.920753,-4.3461 c 2.449783,-0.68043 3.925341,-3.68246 3.231536,-6.57459 -1.048511,-4.37078 -6.961078,-5.42055 -9.460162,-1.67962 -0.882048,1.32032 -1.034534,4.4504 -0.287217,5.89553 1.180011,2.28194 3.616558,3.16391 6.515863,2.35868 z"
     id="path1815"
     inkscape:connector-curvature="0" />
  <path
     style="opacity:0.894;fill:#0075be;fill-opacity:1;stroke:#0075bf;stroke-width:0.43076229;stroke-linecap:round;stroke-linejoin:round;stroke-miterlimit:4;stroke-dasharray:none;stroke-opacity:1;paint-order:stroke fill markers"
     d="m 63.393518,146.35521 v -9.71382 h 2.634268 2.634232 v 1.31713 c 0,0.72442 0.120473,1.31708 0.267713,1.31708 0.147189,0 0.702886,-0.46269 1.234798,-1.02834 1.269184,-1.34963 2.707613,-1.93514 4.753856,-1.93514 2.155064,0 3.748998,0.68409 5.144983,2.20814 l 1.120648,1.22347 0.971798,-1.17893 c 1.327495,-1.61049 2.825802,-2.25268 5.255847,-2.25268 3.27227,0 5.543598,1.53883 6.26039,4.24131 0.173854,0.65549 0.359593,4.41486 0.412719,8.35402 l 0.0966,7.16228 -2.665793,-3.5e-4 -2.665793,-3.5e-4 -0.193711,-6.83094 -0.193663,-6.83088 -0.905227,-0.77861 c -1.203314,-1.03509 -3.426712,-0.84845 -4.666879,0.39159 -1.069852,1.06989 -1.330781,2.83036 -1.362265,9.19174 l -0.02387,4.85695 h -2.584574 -2.584611 l -0.212606,-3.21049 c -0.116918,-1.76581 -0.213368,-4.74073 -0.214282,-6.61096 0,-3.35015 -0.01626,-3.41531 -1.005279,-4.40404 -0.899905,-0.89989 -1.159025,-0.98603 -2.50837,-0.83396 -1.03301,0.1163 -1.776187,0.44084 -2.370368,1.03519 -0.853458,0.85343 -0.869711,0.9576 -1.160904,7.44493 l -0.295343,6.57933 h -2.587079 -2.587078 z"
     id="path1817"
     inkscape:connector-curvature="0" />
  <path
     style="opacity:0.894;fill:#0075be;fill-opacity:1;stroke:#0075bf;stroke-width:0.43076229;stroke-linecap:round;stroke-linejoin:round;stroke-miterlimit:4;stroke-dasharray:none;stroke-opacity:1;paint-order:stroke fill markers"
     d="m 98.379719,165.40009 c -0.320434,-0.12952 -0.411602,-3.33344 -0.411602,-14.46241 v -14.29629 h 2.469613 2.46964 v 0.96841 c 0,0.53264 0.14337,1.05699 0.31855,1.16532 0.17523,0.10819 1.08399,-0.32962 2.01949,-0.97318 2.09378,-1.44025 2.77243,-1.61913 5.35574,-1.41175 4.71377,0.37838 7.84697,3.73625 8.33189,8.92936 0.40353,4.32105 -1.86147,8.74393 -5.34013,10.42797 -1.22054,0.59084 -1.92695,0.69948 -3.90093,0.59978 -2.02984,-0.10259 -2.68452,-0.29205 -4.14586,-1.20052 -0.95449,-0.59332 -1.7801,-1.03403 -1.83477,-0.97938 -0.0546,0.0548 -0.20559,2.65342 -0.33546,5.77506 l -0.23608,5.67572 -2.17425,-0.0254 c -1.19588,-0.0152 -2.359496,-0.10055 -2.585882,-0.19198 z m 13.152201,-14.6446 c 1.34966,-0.9611 1.91244,-2.28524 1.91244,-4.49993 0,-1.47418 -0.17884,-2.20535 -0.74088,-3.02871 -1.5155,-2.22022 -4.40055,-2.90324 -6.98277,-1.65321 -3.94861,1.91143 -3.49164,8.5712 0.67844,9.8887 1.37539,0.43425 4.04642,0.0665 5.13277,-0.70685 z"
     id="path1819"
     inkscape:connector-curvature="0" />
  <path
     style="opacity:0.894;fill:#0075be;fill-opacity:1;stroke:#0075bf;stroke-width:0.43076229;stroke-linecap:round;stroke-linejoin:round;stroke-miterlimit:4;stroke-dasharray:none;stroke-opacity:1;paint-order:stroke fill markers"
     d="m 121.67642,146.35521 v -9.71382 h 2.63422 2.63428 v 1.48174 c 0,0.81498 0.15266,1.48179 0.33932,1.48179 0.18665,0 0.80138,-0.52618 1.36603,-1.16932 1.384,-1.57628 2.55258,-2.12348 4.53463,-2.12348 h 1.66278 v 2.41434 2.41441 l -1.76275,-0.14628 c -1.30921,-0.10869 -2.15929,0.0305 -3.30395,0.53558 -2.32654,1.0291 -2.61288,1.94449 -2.77117,8.85861 l -0.13007,5.68014 h -2.6017 -2.60164 z"
     id="path1821"
     inkscape:connector-curvature="0" />
  <path
     style="opacity:0.894;fill:#0075be;fill-opacity:1;stroke:#0075bf;stroke-width:0.43076229;stroke-linecap:round;stroke-linejoin:round;stroke-miterlimit:4;stroke-dasharray:none;stroke-opacity:1;paint-order:stroke fill markers"
     d="m 138.59566,155.57616 c -3.85512,-1.92108 -4.2362,-6.86196 -0.73018,-9.46662 1.6118,-1.19743 2.97289,-1.57865 7.18676,-2.01286 4.25115,-0.43832 4.49386,-0.62944 3.2131,-2.53263 -1.47979,-2.199 -5.12326,-2.43091 -7.67011,-0.48809 l -1.04226,0.79495 -1.20018,-1.22911 c -0.66008,-0.67596 -1.20014,-1.39875 -1.20014,-1.60613 0,-0.20722 0.99705,-0.86794 2.21573,-1.46787 2.10211,-1.03489 2.40181,-1.09081 5.84473,-1.09081 3.14234,0 3.81668,0.10001 5.0281,0.74737 1.80993,0.96689 2.98353,2.77434 3.38222,5.20891 0.17533,1.07054 0.31962,4.57662 0.32069,7.79126 v 5.8447 h -2.4696 -2.4696 v -1.15247 c 0,-1.34167 -0.56806,-1.50963 -1.51307,-0.44747 -1.8004,2.02367 -6.00812,2.54717 -8.89807,1.10707 z m 8.39364,-3.38469 c 1.20622,-0.56103 2.0175,-2.03139 2.0175,-3.65641 0,-0.87009 -0.1315,-0.99168 -1.28251,-1.18615 -1.65494,-0.27985 -4.90629,0.31947 -5.96171,1.09818 -1.50927,1.11382 -1.1421,3.63523 0.6261,4.29967 1.04111,0.39108 3.09981,0.14271 4.60062,-0.55529 z"
     id="path1823"
     inkscape:connector-curvature="0" />
  <path
     style="opacity:0.894;fill:#0075be;fill-opacity:1;stroke:#0075bf;stroke-width:0.43076229;stroke-linecap:round;stroke-linejoin:round;stroke-miterlimit:4;stroke-dasharray:none;stroke-opacity:1;paint-order:stroke fill markers"
     d="m 158.4112,155.75072 c -2.91959,-1.17269 -3.02102,-1.71715 -0.73057,-3.92031 l 1.15444,-1.11048 1.05501,0.75124 c 1.8941,1.34872 5.69233,1.2924 6.20446,-0.0919 0.61235,-1.65539 0.0917,-2.01173 -5.15951,-3.53146 -3.08124,-0.89173 -4.31185,-1.96009 -4.70952,-4.08875 -0.52103,-2.78892 0.46214,-4.92575 2.93533,-6.3796 1.41051,-0.82915 1.8168,-0.90264 4.99289,-0.90264 3.00277,0 3.65235,0.10258 4.93923,0.78134 0.81497,0.42968 1.54692,0.84068 1.62656,0.91316 0.0797,0.0726 -0.57092,0.85835 -1.44564,1.7464 l -1.59041,1.61477 -1.18374,-0.63447 c -2.22918,-1.19473 -4.98023,-0.53873 -4.98023,1.18767 0,0.98842 0.87288,1.56382 3.45746,2.27915 3.48482,0.9645 4.76799,1.56676 5.77017,2.70816 0.83678,0.95297 0.9801,1.38494 0.9801,2.95333 0,2.63864 -0.94062,4.1637 -3.27124,5.30399 -2.48578,1.21616 -7.53741,1.4276 -10.04479,0.42053 z"
     id="path1825"
     inkscape:connector-curvature="0" />
  <path
     style="opacity:0.894;fill:#0075be;fill-opacity:0.89411765;stroke:#0076be;stroke-width:0.60537702;stroke-linecap:round;stroke-linejoin:round;stroke-miterlimit:4;stroke-dasharray:none;stroke-opacity:0.8;paint-order:stroke fill markers"
     d="m 22.729824,182.37497 c -6.960493,-2.39388 -12.8151528,-8.289 -15.167688,-15.27246 -0.9369215,-2.7812 -0.9486685,-3.64209 -0.9486685,-69.605996 0,-65.577079 0.017272,-66.844955 0.9356709,-69.81925 1.7692045,-5.727986 6.0768806,-10.824444 11.6754836,-13.813428 5.565971,-2.971512 1.226078,-2.814216 77.47831,-2.808172 75.448308,0.005 71.406308,-0.13053 76.985908,2.599375 3.89017,1.903299 8.57994,6.763179 10.56151,10.944658 0.89854,1.896139 1.84649,4.576322 2.1065,5.955927 0.68254,3.621672 0.64646,130.488066 -0.0381,133.794936 -0.86377,4.1729 -3.46527,9.0051 -6.46055,12.00038 -3.09601,3.09599 -5.66648,4.72788 -9.55374,6.06533 -2.66988,0.91859 -3.85001,0.93326 -73.772255,0.91792 -70.131703,-0.0152 -71.094678,-0.0305 -73.802368,-0.95922 z m 148.364726,-5.19966 c 4.14556,-2.04896 7.51536,-5.42608 9.52246,-9.54316 l 1.30476,-2.67653 0.38494,-36.32262 c 0.21169,-19.97744 0.27533,-50.073844 0.14139,-66.880823 -0.23409,-29.379345 -0.28046,-30.656965 -1.20139,-33.118444 -2.21543,-5.921134 -7.1774,-10.543316 -13.37259,-12.456824 -2.97565,-0.919094 -4.23979,-0.935702 -71.349963,-0.935702 -61.451923,0 -68.574902,0.07517 -70.849902,0.749912 -6.708403,1.98883 -11.466007,6.409935 -13.869765,12.888539 l -0.99994,2.695111 v 65.360773 c 0,63.775728 0.02235,65.432548 0.919743,68.320248 1.983437,6.38246 6.807245,11.19582 13.28335,13.25453 1.478117,0.46981 16.384319,0.57393 72.203852,0.50384 l 70.341145,-0.0883 z"
     id="path1835"
     inkscape:connector-curvature="0" />
</svg>
