<?xml version="1.0" encoding="UTF-8" standalone="no"?>
<svg
   xmlns:dc="http://purl.org/dc/elements/1.1/"
   xmlns:cc="http://creativecommons.org/ns#"
   xmlns:rdf="http://www.w3.org/1999/02/22-rdf-syntax-ns#"
   xmlns:svg="http://www.w3.org/2000/svg"
   xmlns="http://www.w3.org/2000/svg"
   xmlns:sodipodi="http://sodipodi.sourceforge.net/DTD/sodipodi-0.dtd"
   xmlns:inkscape="http://www.inkscape.org/namespaces/inkscape"
   width="2500"
   height="2500"
   viewBox="0 0 192.756 192.756"
   version="1.1"
   id="svg12"
   sodipodi:docname="cabal.svg"
   inkscape:version="0.92.4 (5da689c313, 2019-01-14)">
  <metadata
     id="metadata18">
    <rdf:RDF>
      <cc:Work
         rdf:about="">
        <dc:format>image/svg+xml</dc:format>
        <dc:type
           rdf:resource="http://purl.org/dc/dcmitype/StillImage" />
      </cc:Work>
    </rdf:RDF>
  </metadata>
  <defs
     id="defs16" />
  <sodipodi:namedview
     pagecolor="#ffffff"
     bordercolor="#666666"
     borderopacity="1"
     objecttolerance="10"
     gridtolerance="10"
     guidetolerance="10"
     inkscape:pageopacity="0"
     inkscape:pageshadow="2"
     inkscape:window-width="1366"
     inkscape:window-height="705"
     id="namedview14"
     showgrid="false"
     inkscape:zoom="0.0944"
     inkscape:cx="-68.855932"
     inkscape:cy="1250"
     inkscape:window-x="-8"
     inkscape:window-y="-8"
     inkscape:window-maximized="1"
     inkscape:current-layer="svg12" />
  <path
     style="clip-rule:evenodd;fill:#ffffff;fill-rule:evenodd"
     inkscape:connector-curvature="0"
     id="path4"
     d="M 173.043,170.922 V 19.707 H 19.712 v 153.342 h 153.331 z" />
  <path
     style="clip-rule:evenodd;fill:#1e447f;fill-rule:evenodd"
     inkscape:connector-curvature="0"
     id="path6"
     d="M 167.365,167.357 V 25.398 H 25.396 v 141.959 z" />
  <path
     style="clip-rule:evenodd;fill:#ffffff;fill-rule:evenodd"
     inkscape:connector-curvature="0"
     id="path8"
     d="m 117.625,82.675 -19.357,19.378 v 17.845 L 135.504,82.651 98.268,45.408 v 17.897 z m -42.623,0 19.397,-19.37 V 45.388 l -37.267,37.263 37.267,37.267 v -17.859 z m -9.033,43.852 h 0.602 l -1.609,6.934 h -0.608 c -0.082,-1.883 -0.562,-3.301 -1.405,-4.225 -0.848,-0.926 -1.968,-1.373 -3.341,-1.373 -1.468,0 -2.963,0.607 -4.419,1.881 -1.468,1.264 -2.717,3.221 -3.736,5.814 -0.817,2.109 -1.233,4.186 -1.233,6.252 0,1.834 0.448,3.246 1.367,4.227 0.904,0.977 2.134,1.443 3.696,1.443 1.3,0 2.47,-0.271 3.509,-0.836 1.062,-0.545 2.108,-1.455 3.19,-2.703 h 0.772 c -1.335,1.982 -2.678,3.379 -4.021,4.191 -1.366,0.805 -3.025,1.203 -4.99,1.203 -2.618,0 -4.726,-0.793 -6.334,-2.393 -1.608,-1.578 -2.424,-3.654 -2.424,-6.223 0,-2.4 0.652,-4.693 1.917,-6.881 1.273,-2.18 3.127,-3.932 5.527,-5.295 2.374,-1.334 4.779,-2.018 7.148,-2.018 0.887,0 2.007,0.195 3.342,0.582 0.683,0.203 1.17,0.293 1.437,0.293 0.544,0.002 1.067,-0.291 1.613,-0.873 z m 12.609,6.856 -0.418,7.115 h -5.664 z m -1.011,13.713 c -0.254,0.449 -0.519,0.771 -0.812,0.916 -0.164,0.07 -0.683,0.152 -1.62,0.234 l -0.195,0.602 h 9.45 l 0.165,-0.602 c -0.683,-0.051 -1.171,-0.246 -1.457,-0.57 -0.296,-0.348 -0.461,-0.873 -0.461,-1.607 0,-0.176 0.032,-0.746 0.063,-1.67 l 0.714,-17.871 H 82.7 L 67.242,144.98 c -1.14,1.354 -1.982,2.229 -2.603,2.645 -0.449,0.316 -0.938,0.52 -1.53,0.621 l -0.16,0.602 h 6.496 v -0.602 c -0.633,-0.031 -1.07,-0.164 -1.366,-0.379 -0.253,-0.223 -0.386,-0.455 -0.386,-0.711 0,-0.244 0.03,-0.486 0.151,-0.744 0.146,-0.324 0.367,-0.68 0.664,-1.078 l 1.526,-1.854 1.366,-1.67 h 6.761 l -0.132,2.777 c -0.075,1.184 -0.216,2.02 -0.462,2.509 z m 22.585,-18.91 c 0.875,-0.039 1.59,0.227 2.109,0.746 0.519,0.519 0.783,1.203 0.783,2.045 0,0.898 -0.244,1.822 -0.764,2.83 -0.508,1.008 -1.191,1.734 -2.014,2.17 -0.867,0.438 -2,0.672 -3.463,0.684 l 2.463,-8.463 z m -6.373,-0.122 c 0.324,0.246 0.457,0.559 0.457,0.926 0,0.461 -0.183,1.367 -0.589,2.729 l -3.86,13.42 c -0.324,1.07 -0.621,1.791 -0.844,2.121 A 1.974,1.974 0 0 1 88.026,148 c -0.367,0.164 -0.995,0.246 -1.881,0.246 l -0.208,0.602 h 9.076 c 3.381,0 5.719,-0.266 7.023,-0.754 a 6.83,6.83 0 0 0 3.057,-2.361 c 0.771,-1.08 1.158,-2.17 1.158,-3.271 0,-1.189 -0.387,-2.229 -1.158,-3.104 -0.805,-0.896 -2.18,-1.619 -4.229,-2.189 1.949,-0.438 3.381,-0.924 4.318,-1.443 0.949,-0.52 1.662,-1.195 2.107,-1.988 0.49,-0.814 0.725,-1.588 0.725,-2.373 0,-0.926 -0.295,-1.779 -0.877,-2.533 -0.59,-0.727 -1.443,-1.234 -2.533,-1.486 -0.816,-0.195 -2.182,-0.318 -4.115,-0.318 h -8.623 l -0.163,0.602 c 1.068,0.036 1.748,0.181 2.076,0.434 l 5.526,10.143 c 0.562,0.215 1.02,0.602 1.398,1.17 0.355,0.57 0.52,1.211 0.52,1.945 0,1.518 -0.461,2.943 -1.396,4.277 -0.945,1.33 -2.605,2.014 -4.978,2.014 -0.285,0 -0.683,-0.02 -1.202,-0.049 l 2.771,-9.705 c 1.362,0 2.299,0.133 2.887,0.348 z m 28.723,5.319 -0.406,7.115 h -5.641 z m -1.01,13.713 c -0.264,0.449 -0.518,0.771 -0.814,0.916 -0.141,0.07 -0.68,0.152 -1.627,0.234 l -0.154,0.602 h 9.42 l 0.172,-0.602 c -0.689,-0.051 -1.182,-0.246 -1.475,-0.57 -0.297,-0.348 -0.418,-0.873 -0.418,-1.607 0,-0.176 0,-0.746 0.031,-1.67 l 0.711,-17.871 h -0.711 l -15.465,18.453 c -1.102,1.354 -1.98,2.229 -2.57,2.645 -0.455,0.316 -0.975,0.52 -1.557,0.621 l -0.164,0.602 h 6.527 v -0.602 c -0.652,-0.031 -1.098,-0.164 -1.361,-0.379 -0.287,-0.223 -0.42,-0.455 -0.42,-0.711 0,-0.244 0.053,-0.486 0.164,-0.744 0.133,-0.324 0.355,-0.68 0.652,-1.078 l 1.559,-1.854 1.361,-1.67 h 6.742 l -0.152,2.777 c -0.062,1.183 -0.195,2.019 -0.451,2.508 z m 28.307,-4.377 -2.412,6.129 h -17.422 l 0.164,-0.602 c 1.057,0 1.809,-0.195 2.279,-0.602 0.488,-0.404 0.936,-1.303 1.336,-2.717 l 4.051,-14.002 c 0.234,-0.773 0.328,-1.373 0.328,-1.811 0,-0.438 -0.125,-0.785 -0.492,-1.029 -0.285,-0.256 -0.936,-0.42 -1.883,-0.459 l 0.205,-0.602 h 10.455 l -0.182,0.602 c -1.02,0.021 -1.771,0.244 -2.252,0.684 -0.508,0.426 -0.945,1.305 -1.332,2.615 l -3.707,12.82 c -0.457,1.619 -0.711,2.615 -0.711,2.975 0,0.209 0.133,0.416 0.355,0.6 0.266,0.172 0.65,0.293 1.182,0.293 1.77,0 3.49,-0.426 5.15,-1.24 1.662,-0.805 3.055,-2.027 4.195,-3.654 z" />
</svg>
