<?xml version="1.0" encoding="UTF-8" standalone="no"?>
<!-- Created with Inkscape (http://www.inkscape.org/) -->

<svg
   xmlns:dc="http://purl.org/dc/elements/1.1/"
   xmlns:cc="http://creativecommons.org/ns#"
   xmlns:rdf="http://www.w3.org/1999/02/22-rdf-syntax-ns#"
   xmlns:svg="http://www.w3.org/2000/svg"
   xmlns="http://www.w3.org/2000/svg"
   xmlns:sodipodi="http://sodipodi.sourceforge.net/DTD/sodipodi-0.dtd"
   xmlns:inkscape="http://www.inkscape.org/namespaces/inkscape"
   width="100mm"
   height="80mm"
   viewBox="0 0 100 80"
   version="1.1"
   id="svg8"
   inkscape:version="0.92.4 (5da689c313, 2019-01-14)"
   sodipodi:docname="hiper.svg">
  <defs
     id="defs2">
    <inkscape:path-effect
       effect="bspline"
       id="path-effect886"
       is_visible="true"
       weight="33.333333"
       steps="2"
       helper_size="0"
       apply_no_weight="true"
       apply_with_weight="true"
       only_selected="false" />
    <inkscape:path-effect
       effect="bspline"
       id="path-effect882"
       is_visible="true"
       weight="33.333333"
       steps="2"
       helper_size="0"
       apply_no_weight="true"
       apply_with_weight="true"
       only_selected="false" />
    <inkscape:path-effect
       effect="bspline"
       id="path-effect878"
       is_visible="true"
       weight="33.333333"
       steps="2"
       helper_size="0"
       apply_no_weight="true"
       apply_with_weight="true"
       only_selected="false" />
    <inkscape:path-effect
       effect="bspline"
       id="path-effect874"
       is_visible="true"
       weight="33.333333"
       steps="2"
       helper_size="0"
       apply_no_weight="true"
       apply_with_weight="true"
       only_selected="false" />
    <inkscape:path-effect
       effect="bspline"
       id="path-effect870"
       is_visible="true"
       weight="33.333333"
       steps="2"
       helper_size="0"
       apply_no_weight="true"
       apply_with_weight="true"
       only_selected="false" />
    <inkscape:path-effect
       effect="bspline"
       id="path-effect866"
       is_visible="true"
       weight="33.333333"
       steps="2"
       helper_size="0"
       apply_no_weight="true"
       apply_with_weight="true"
       only_selected="false" />
    <inkscape:path-effect
       effect="bspline"
       id="path-effect858"
       is_visible="true"
       weight="33.333333"
       steps="2"
       helper_size="0"
       apply_no_weight="true"
       apply_with_weight="true"
       only_selected="false" />
    <clipPath
       clipPathUnits="userSpaceOnUse"
       id="clipPath854">
      <rect
         style="opacity:1;fill:#000000;fill-opacity:1;stroke:#00a7e5;stroke-width:0.2;stroke-linecap:round;stroke-linejoin:round;stroke-miterlimit:4;stroke-dasharray:none;stroke-opacity:0.94117647;paint-order:stroke fill markers"
         id="rect856"
         width="160.2619"
         height="52.916664"
         x="-168.57739"
         y="-76.440475" />
    </clipPath>
    <clipPath
       clipPathUnits="userSpaceOnUse"
       id="clipPath862">
      <rect
         style="opacity:1;fill:#000000;fill-opacity:1;stroke:#00a7e5;stroke-width:0.2;stroke-linecap:round;stroke-linejoin:round;stroke-miterlimit:4;stroke-dasharray:none;stroke-opacity:0.94117647;paint-order:stroke fill markers"
         id="rect864"
         width="37.797619"
         height="38.55357"
         x="384.77979"
         y="-125.57738" />
    </clipPath>
    <clipPath
       clipPathUnits="userSpaceOnUse"
       id="clipPath870">
      <rect
         style="opacity:1;fill:#000000;fill-opacity:1;stroke:#00a7e5;stroke-width:0.2;stroke-linecap:round;stroke-linejoin:round;stroke-miterlimit:4;stroke-dasharray:none;stroke-opacity:0.94117647;paint-order:stroke fill markers"
         id="rect872"
         width="95.25"
         height="39.309525"
         x="449.03571"
         y="134.47025" />
    </clipPath>
    <clipPath
       clipPathUnits="userSpaceOnUse"
       id="clipPath880">
      <rect
         style="opacity:1;fill:#000000;fill-opacity:1;stroke:#00a7e5;stroke-width:0.2;stroke-linecap:round;stroke-linejoin:round;stroke-miterlimit:4;stroke-dasharray:none;stroke-opacity:0.94117647;paint-order:stroke fill markers"
         id="rect882"
         width="160.2619"
         height="16.011211"
         x="540.98914"
         y="384.47595" />
    </clipPath>
    <clipPath
       clipPathUnits="userSpaceOnUse"
       id="clipPath888">
      <rect
         style="opacity:1;fill:#000000;fill-opacity:1;stroke:#00a7e5;stroke-width:0.2;stroke-linecap:round;stroke-linejoin:round;stroke-miterlimit:4;stroke-dasharray:none;stroke-opacity:0.94117647;paint-order:stroke fill markers"
         id="rect890"
         width="163.09467"
         height="14.383767"
         x="-168.57739"
         y="-76.440475" />
    </clipPath>
    <clipPath
       clipPathUnits="userSpaceOnUse"
       id="clipPath894">
      <rect
         style="opacity:1;fill:#000000;fill-opacity:1;stroke:#00a7e5;stroke-width:0.2;stroke-linecap:round;stroke-linejoin:round;stroke-miterlimit:4;stroke-dasharray:none;stroke-opacity:0.94117647;paint-order:stroke fill markers"
         id="rect896"
         width="158.06349"
         height="36.345959"
         x="-166.37898"
         y="-59.869774" />
    </clipPath>
    <clipPath
       clipPathUnits="userSpaceOnUse"
       id="clipPath920">
      <rect
         style="opacity:1;fill:#000000;fill-opacity:1;stroke:#00a7e5;stroke-width:0.19350976;stroke-linecap:round;stroke-linejoin:round;stroke-miterlimit:4;stroke-dasharray:none;stroke-opacity:0.94117647;paint-order:stroke fill markers"
         id="rect922"
         width="152.61232"
         height="14.390256"
         x="545.44537"
         y="386.18033" />
    </clipPath>
    <clipPath
       clipPathUnits="userSpaceOnUse"
       id="clipPath839">
      <rect
         style="opacity:1;fill:#ff0000;fill-opacity:1;stroke:#ff0000;stroke-width:0.2;stroke-linecap:round;stroke-linejoin:round;stroke-miterlimit:4;stroke-dasharray:none;stroke-opacity:0.94117647;paint-order:stroke fill markers"
         id="rect841"
         width="48.75893"
         height="27.592262"
         x="450.4559"
         y="137.97446" />
    </clipPath>
    <clipPath
       clipPathUnits="userSpaceOnUse"
       id="clipPath845">
      <rect
         style="opacity:1;fill:#ff0000;fill-opacity:1;stroke:#ff0000;stroke-width:0.2;stroke-linecap:round;stroke-linejoin:round;stroke-miterlimit:4;stroke-dasharray:none;stroke-opacity:0.94117647;paint-order:stroke fill markers"
         id="rect847"
         width="41.199402"
         height="33.639881"
         x="500.72675"
         y="134.57269" />
    </clipPath>
  </defs>
  <sodipodi:namedview
     id="base"
     pagecolor="#ffffff"
     bordercolor="#666666"
     borderopacity="1.0"
     inkscape:pageopacity="0.0"
     inkscape:pageshadow="2"
     inkscape:zoom="0.24748737"
     inkscape:cx="1008.2503"
     inkscape:cy="80.170033"
     inkscape:document-units="mm"
     inkscape:current-layer="layer1"
     showgrid="false"
     inkscape:snap-global="false"
     inkscape:window-width="1366"
     inkscape:window-height="705"
     inkscape:window-x="-8"
     inkscape:window-y="-8"
     inkscape:window-maximized="1" />
  <metadata
     id="metadata5">
    <rdf:RDF>
      <cc:Work
         rdf:about="">
        <dc:format>image/svg+xml</dc:format>
        <dc:type
           rdf:resource="http://purl.org/dc/dcmitype/StillImage" />
        <dc:title></dc:title>
      </cc:Work>
    </rdf:RDF>
  </metadata>
  <g
     inkscape:label="Camada 1"
     inkscape:groupmode="layer"
     id="layer1"
     transform="translate(0,-217)">
    <g
       id="g898"
       transform="matrix(2.5203408,0,0,2.5203408,-188.30662,143.32014)">
      <path
         inkscape:original-d="m 81.382999,58.827751 c 9.654405,-0.0081 19.308551,-0.01601 28.962421,-0.02363 0.008,-2.65e-4 0.016,-2.65e-4 0.0236,0 0.0459,-0.04593 0.0948,-0.09476 0.14174,-0.141743 0.24301,-0.611036 0.48848,-1.228688 0.73233,-1.842632 0.008,-0.559065 0.016,-1.118444 0.0236,-1.67727 -0.20438,-0.795208 -0.40921,-1.590914 -0.61422,-2.385976 -1.3932,-5.983499 -2.78731,-11.969509 -4.18136,-17.953868 -0.0706,-0.142002 -0.14147,-0.283747 -0.21261,-0.425222 -0.35382,-0.48812 -0.70844,-0.976704 -1.06306,-1.46466 -0.29894,-0.228602 -0.5982,-0.456985 -0.89769,-0.68508 -0.40139,-0.181404 -0.80293,-0.362492 -1.2048,-0.54334 -0.46447,-0.04753 -0.92893,-0.09476 -1.39379,-0.141743 -0.33063,0.03125 -0.66119,0.06273 -0.99218,0.09449 -0.76423,0.165246 -1.527394,0.330465 -2.291484,0.496094 -5.577128,1.331063 -11.150034,2.661319 -16.725448,3.992375 -0.338357,0.07849 -0.676941,0.157226 -1.015812,0.236236 -0.251949,0.110077 -0.503703,0.22022 -0.755951,0.330729 -0.283575,0.23627 -0.566701,0.472204 -0.850445,0.708705 -0.220446,0.188915 -0.440709,0.377711 -0.661459,0.566965 -0.259929,0.409733 -0.519453,0.818681 -0.779576,1.22842 -0.0943,0.464683 -0.188724,0.928929 -0.283482,1.393788 -0.03126,0.299165 -0.06273,0.598197 -0.09449,0.897695 0.06332,0.346548 0.126257,0.692689 0.188987,1.039434 1.268828,5.278842 2.535857,10.55157 3.803385,15.827753 0.01601,0.07848 0.03176,0.157226 0.04725,0.236233 0.03185,0.07869 0.06326,0.157226 0.0945,0.236236 z"
         inkscape:path-effect="#path-effect858"
         inkscape:connector-curvature="0"
         id="path856"
         d="m 86.210202,58.823813 c 4.827202,-0.0039 14.481348,-0.01182 19.312288,-0.01575 4.83093,-0.0039 4.83893,-0.0039 4.86569,-0.0269 0.0267,-0.02296 0.0756,-0.07182 0.22053,-0.40085 0.14492,-0.329027 0.3904,-0.946676 0.51632,-1.533155 0.12593,-0.586479 0.1338,-1.14586 0.0354,-1.822835 -0.0984,-0.676975 -0.30325,-1.472679 -1.10235,-4.861965 -0.7991,-3.389285 -2.19321,-9.375295 -2.92554,-12.438431 -0.73233,-3.063137 -0.8032,-3.204881 -1.01567,-3.519649 -0.21247,-0.314769 -0.56709,-0.803354 -0.89383,-1.161596 -0.32674,-0.358241 -0.626,-0.586624 -0.9764,-0.79136 -0.3504,-0.204736 -0.75195,-0.385822 -1.18506,-0.500026 -0.43311,-0.114204 -0.89757,-0.161438 -1.29529,-0.169331 -0.39772,-0.0079 -0.72828,0.02359 -1.27588,0.122071 -0.547597,0.09848 -1.310761,0.263704 -4.481369,1.012046 -3.170608,0.748342 -8.743514,2.078598 -11.7004,2.78337 -2.956886,0.704772 -3.295469,0.783512 -3.590874,0.878023 -0.295405,0.09451 -0.547159,0.204653 -0.815087,0.377992 -0.267929,0.173339 -0.551053,0.409276 -0.80315,0.621981 -0.252097,0.212705 -0.472359,0.401502 -0.712742,0.700963 -0.240383,0.29946 -0.499908,0.708408 -0.677187,1.14562 -0.177279,0.437212 -0.271702,0.901458 -0.334724,1.283478 -0.06302,0.382021 -0.0945,0.681053 -0.07875,1.004115 0.01575,0.323063 0.07868,0.669204 0.744455,3.482008 0.665775,2.812803 1.932803,8.085531 2.574578,10.762855 0.641775,2.677324 0.657525,2.75607 0.681185,2.834953 0.02366,0.07888 0.05508,0.157416 0.07085,0.196858 0.01578,0.03944 0.01582,0.03945 4.843025,0.03552 z"
         style="fill:#f58634;fill-opacity:0.98039216;stroke:none;stroke-width:0.065;stroke-linecap:butt;stroke-linejoin:miter;stroke-miterlimit:4;stroke-dasharray:none;stroke-opacity:1" />
      <path
         inkscape:original-d="m 81.166413,44.17973 c 0.506963,0.0053 1.013661,0.01087 1.520095,0.01669 0.0058,0.02199 0.0114,0.04428 0.01669,0.06682 0.01148,1.010402 0.02254,2.004259 0.03341,3.006783 0.01696,0.01646 0.03367,0.03314 0.05011,0.05011 0.974686,0.01087 1.949106,0.02201 2.92326,0.03341 0.02254,-0.03366 0.04481,-0.06708 0.06682,-0.100226 0.01683,-0.993365 0.03367,-2.004785 0.05011,-3.006781 0.02252,-0.0114 0.04481,-0.02254 0.06682,-0.03341 0.521697,-0.0057 1.058209,-0.0114 1.586915,-0.01669 0.02809,0.0053 0.05594,0.01087 0.08352,0.01669 2.65e-4,2.597618 2.65e-4,5.233763 0,7.851042 -0.02201,0.02201 -0.04428,0.04428 -0.06682,0.06682 -0.484283,0.0054 -0.95745,0.01087 -1.436574,0.01669 2.65e-4,-0.02254 2.65e-4,-0.04481 0,-0.06682 -0.01624,-1.128167 -0.03314,-2.28319 -0.05011,-3.424388 -0.02201,-0.0058 -0.04428,-0.0114 -0.06682,-0.01669 -1.04409,-0.01148 -2.071073,-0.02254 -3.107007,-0.03341 -0.01087,0.03872 -0.02201,0.07769 -0.03341,0.11693 -0.01659,1.11112 -0.03314,2.204709 -0.05012,3.307461 -0.01646,0.03872 -0.03314,0.07769 -0.05011,0.11693 -0.516199,-0.01148 -1.024268,-0.02254 -1.5368,-0.03341 -0.01646,-0.03369 -0.03315,-0.06708 -0.05011,-0.100224 -0.01638,-2.556259 -0.03315,-5.128501 -0.05012,-7.692353 0.0058,-0.0281 0.0114,-0.05595 0.01669,-0.08352 0.0278,-0.01953 0.05595,-0.03924 0.08352,-0.05847 z"
         inkscape:path-effect="#path-effect866"
         inkscape:connector-curvature="0"
         id="path864"
         d="m 81.419893,44.182513 c 0.25348,0.0028 0.760178,0.0083 1.016152,0.02216 0.255974,0.01381 0.261543,0.03611 0.269962,0.552541 0.0084,0.516433 0.01946,1.51029 0.03339,2.019905 0.01392,0.509616 0.03062,0.526311 0.526314,0.540233 0.495694,0.01392 1.470114,0.02506 1.968428,0.01377 0.498314,-0.01129 0.520592,-0.0447 0.539905,-0.557938 0.01931,-0.513238 0.03617,-1.524657 0.05581,-2.031297 0.01964,-0.50664 0.04193,-0.517784 0.313753,-0.526016 0.271827,-0.0082 0.80834,-0.01387 1.086706,-0.01385 0.278367,2e-5 0.306218,0.0056 0.320037,1.307156 0.01382,1.301571 0.01382,3.937716 0.0028,5.25736 -0.011,1.319645 -0.03328,1.341915 -0.286685,1.355998 -0.25341,0.01408 -0.726577,0.01958 -0.966141,0.01109 -0.239563,-0.0085 -0.239563,-0.03076 -0.247817,-0.605844 -0.0083,-0.575086 -0.02516,-1.730109 -0.04455,-2.303468 -0.01939,-0.573358 -0.04167,-0.578923 -0.574945,-0.587342 -0.533277,-0.0084 -1.56026,-0.01946 -2.08375,-0.0057 -0.52349,0.01376 -0.534625,0.05274 -0.548657,0.627939 -0.01403,0.575203 -0.0306,1.668792 -0.04725,2.239506 -0.01664,0.570714 -0.03334,0.609676 -0.299861,0.623713 -0.266523,0.01404 -0.774592,0.003 -1.039239,-0.01935 -0.264646,-0.02234 -0.28134,-0.05573 -0.297992,-1.350506 -0.01665,-1.294778 -0.03341,-3.86702 -0.03895,-5.163015 -0.0055,-1.295994 2.5e-5,-1.323851 0.01669,-1.347357 0.01667,-0.02351 0.04482,-0.04321 0.05859,-0.05285 0.01377,-0.0096 0.01381,-0.0096 0.267289,-0.0068 z"
         style="fill:#ffffff;fill-opacity:0.98039216;stroke:none;stroke-width:0.065;stroke-linecap:butt;stroke-linejoin:miter;stroke-miterlimit:4;stroke-dasharray:none;stroke-opacity:1" />
      <path
         sodipodi:nodetypes="ccccccccccccccccccccccccccccccccccccccccccccccccccccccccccccccccc"
         inkscape:connector-curvature="0"
         d="m 93.555605,48.274802 c -0.0558,0.459368 -0.100346,1.305722 -0.103157,1.776318 -0.0028,0.470595 0.03615,0.565219 0.105881,0.64609 0.06973,0.08087 0.169814,0.147595 0.309009,0.211616 0.139196,0.06402 0.317484,0.125308 0.484536,0.139183 0.167052,0.01387 0.323092,-0.01956 0.517729,-0.147506 0.194636,-0.127944 0.428958,-0.351108 0.590275,-0.693302 0.161317,-0.342194 0.25051,-0.804885 0.261621,-1.233454 0.01111,-0.428568 -0.05575,-0.824165 -0.180931,-1.080138 -0.125181,-0.255973 -0.309027,-0.372965 -0.48717,-0.448143 -0.178144,-0.07518 -0.35069,-0.108574 -0.528926,-0.100255 -0.178237,0.0083 -0.361764,0.05837 -0.492701,0.1196 -0.130938,0.06123 -0.208757,0.133488 -0.281269,0.20599 -0.07251,0.0725 -0.139096,0.144633 -0.194897,0.604001 z m -3.128738,-1.274688 c -0.0039,0.574705 -0.01181,1.724383 0.01966,2.366255 0.03148,0.641873 0.102332,0.775707 0.185059,0.905711 0.08273,0.130003 0.177152,0.255902 0.299298,0.358331 0.122146,0.102429 0.271708,0.181146 0.401595,0.251995 0.129887,0.07085 0.240202,0.133886 0.299268,0.153405 0.05907,0.01952 0.06695,-0.0041 0.07931,-0.01941 0.01236,-0.01528 0.0294,-0.02258 0.05132,-0.781435 0.02192,-0.758857 0.05028,-2.327651 0.0755,-3.102956 0.02521,-0.775305 0.04749,-0.786441 0.250702,-0.79193 0.203217,-0.0055 0.598541,-0.0055 0.801611,0.01392 0.20307,0.01941 0.219789,0.05842 0.267248,0.203577 0.04746,0.145162 0.125158,0.394906 0.172597,0.503398 0.04744,0.108492 0.06413,0.07511 0.111111,4.97e-4 0.04698,-0.07461 0.125675,-0.192648 0.281332,-0.314913 0.155657,-0.122265 0.39013,-0.250668 0.618261,-0.328534 0.228132,-0.07787 0.451157,-0.105745 0.707074,-0.108515 0.255918,-0.0028 0.545839,0.01953 0.751711,0.07518 0.205871,0.05565 0.328473,0.144816 0.475965,0.283959 0.147492,0.139142 0.320171,0.328532 0.492771,0.570721 0.172599,0.242189 0.345199,0.537279 0.445439,0.807292 0.10024,0.270013 0.128073,0.514941 0.128083,0.821335 1.1e-5,0.306394 -0.0278,0.673544 -0.08347,0.979866 -0.05567,0.306322 -0.139127,0.551131 -0.256134,0.832527 -0.117007,0.281396 -0.267151,0.598367 -0.450935,0.837926 -0.183785,0.239558 -0.400721,0.40087 -0.6682,0.523495 -0.26748,0.122625 -0.584427,0.206033 -0.893655,0.222771 -0.309229,0.01674 -0.609609,-0.03332 -0.829639,-0.08623 -0.22003,-0.05291 -0.359133,-0.108548 -0.465026,-0.169852 -0.105892,-0.0613 -0.178207,-0.128056 -0.233775,-0.139334 -0.05557,-0.01128 -0.09454,0.03326 -0.102946,0.405747 -0.0084,0.372486 0.01372,1.064111 0.01386,1.412246 1.36e-4,0.348136 -0.02213,0.348136 -0.267093,0.348136 -0.244959,0 -0.701622,0 -0.935629,-0.0224 -0.234007,-0.0224 -0.239566,-0.06691 -0.234804,-0.408731 0.0048,-0.341818 0.01997,-0.987437 -0.005,-1.310245 -0.02493,-0.322807 -0.09017,-0.326377 -0.150675,-0.294865 -0.0605,0.03151 -0.116122,0.09825 -0.250197,0.131806 -0.134074,0.03355 -0.344757,0.03355 -0.60393,-0.02775 -0.259173,-0.0613 -0.565037,-0.183644 -0.810162,-0.373069 -0.245124,-0.189426 -0.42879,-0.445444 -0.601389,-0.695993 -0.172599,-0.250549 -0.334105,-0.495593 -0.431533,-0.790746 -0.09743,-0.295153 -0.130845,-0.640463 -0.141967,-0.943855 -0.01112,-0.303392 2.2e-5,-0.565274 1.9e-5,-0.940855 -3e-6,-0.375581 -0.01115,-0.866092 -0.01393,-1.211268 -0.0028,-0.345176 0.0028,-0.545734 0.0224,-0.659847 0.0196,-0.114112 0.05306,-0.141989 0.288494,-0.150956 0.235435,-0.009 0.680491,8.59e-4 0.908708,0.0092 0.228216,0.0084 0.243539,0.01534 0.255562,0.02824 0.01202,0.0129 0.02105,0.03216 0.02555,0.04179 0.0045,0.0096 0.0045,0.0096 5.52e-4,0.584333 z"
         inkscape:original-d="m 93.544333,47.888096 c -0.04428,0.846087 -0.08883,1.692441 -0.133633,2.53906 0.03925,0.09443 0.07822,0.189051 0.11693,0.283972 0.100632,0.06665 0.200716,0.133372 0.300678,0.200454 0.178334,0.06095 0.356624,0.122232 0.534538,0.183748 0.156038,-0.03364 0.312078,-0.06708 0.467722,-0.100227 0.233664,-0.222552 0.467987,-0.445714 0.701582,-0.668173 0.08925,-0.461883 0.178446,-0.924574 0.267269,-1.386462 -0.06651,-0.39534 -0.133368,-0.790937 -0.200451,-1.186008 -0.183385,-0.117131 -0.367231,-0.234124 -0.551243,-0.35079 -0.172411,-0.03369 -0.344959,-0.06708 -0.517835,-0.100227 -0.183703,0.04991 -0.367231,0.09996 -0.551243,0.150339 -0.07782,0.07225 -0.155644,0.144505 -0.23386,0.217157 -0.06679,0.07237 -0.133371,0.144505 -0.200454,0.217157 z m -3.113529,-1.462688 c -0.0076,1.149413 -0.01548,2.299091 -0.02363,3.449034 0.07115,0.133633 0.142004,0.267467 0.212611,0.401598 0.09483,0.12582 0.189254,0.251719 0.283482,0.377976 0.149932,0.07851 0.299495,0.157226 0.448847,0.236235 0.110435,0.06269 0.22075,0.125728 0.33073,0.18899 0.0081,-0.02387 0.01601,-0.04751 0.02363,-0.07087 0.01688,-0.0074 0.03393,-0.01468 0.0505,-0.02162 0.02757,-1.510639 0.05594,-3.079433 0.08352,-4.618752 0.02254,-0.0114 0.04481,-0.02254 0.06682,-0.03341 0.384477,-2.65e-4 0.779801,-2.65e-4 1.169302,0 0.01696,0.03868 0.03367,0.07769 0.05012,0.11693 0.07847,0.251121 0.15617,0.500864 0.23386,0.751694 0.01699,-0.03369 0.03367,-0.06708 0.05011,-0.100227 0.07748,-0.116083 0.15617,-0.234124 0.23386,-0.35079 0.233513,-0.127997 0.467987,-0.256397 0.701582,-0.384201 0.222689,-0.02807 0.445715,-0.05594 0.668174,-0.08352 0.289425,0.02199 0.579347,0.04428 0.868627,0.06682 0.122658,0.08875 0.24526,0.177914 0.367495,0.267269 0.172808,0.188978 0.345488,0.378367 0.517835,0.567949 0.172887,0.294865 0.345487,0.589955 0.517834,0.88533 0.02811,0.244801 0.05595,0.489728 0.08352,0.734992 -0.0276,0.367577 -0.05542,0.734726 -0.08352,1.102487 -0.08332,0.244919 -0.16678,0.489727 -0.250565,0.734988 -0.15027,0.317532 -0.300414,0.634503 -0.451017,0.952148 -0.217112,0.161375 -0.434049,0.322686 -0.65147,0.484426 -0.317553,0.08337 -0.6345,0.16678 -0.952148,0.250566 -0.30071,-0.05043 -0.601091,-0.100489 -0.902034,-0.150339 -0.139038,-0.05599 -0.278143,-0.111625 -0.41761,-0.167042 -0.07219,-0.06715 -0.144505,-0.133901 -0.217157,-0.200454 -0.03872,0.04429 -0.07769,0.08883 -0.11693,0.133636 0.02267,0.70014 0.04481,1.391764 0.06682,2.088044 -0.02201,-2.65e-4 -0.04428,-2.65e-4 -0.06682,0 -0.467378,-2.65e-4 -0.924041,-2.65e-4 -1.386459,0 -0.0053,-0.04484 -0.01087,-0.08935 -0.01669,-0.133636 0.01532,-0.639309 0.03053,-1.284928 0.04539,-1.926993 -0.06498,-0.0038 -0.130214,-0.0074 -0.195732,-0.01071 -0.05548,0.06663 -0.111098,0.133371 -0.167042,0.200454 -0.21223,-2.65e-4 -0.422913,-2.65e-4 -0.634767,0 -0.306364,-0.122918 -0.612227,-0.245264 -0.918739,-0.367496 -0.183566,-0.256514 -0.367231,-0.512532 -0.551244,-0.7684 -0.161179,-0.245216 -0.322686,-0.49026 -0.484425,-0.734992 -0.03313,-0.3454 -0.06655,-0.69071 -0.100225,-1.035669 0.0114,-0.261786 0.02254,-0.523668 0.03341,-0.785103 -0.01085,-0.489744 -0.02201,-0.980255 -0.03341,-1.469983 0.0058,-0.200612 0.0114,-0.401169 0.0167,-0.601358 0.03363,-0.02807 0.06708,-0.05595 0.100226,-0.08352 0.437756,0.0094 0.882812,0.01924 1.323819,0.02923 0.01556,0.0067 0.03089,0.01365 0.04594,0.02088 0.0092,0.01873 0.01818,0.03801 0.02689,0.05741 z"
         inkscape:path-effect="#path-effect874"
         style="fill:#ffffff;fill-opacity:0.98039216;stroke:none;stroke-width:0.065;stroke-linecap:butt;stroke-linejoin:miter;stroke-miterlimit:4;stroke-dasharray:none;stroke-opacity:1"
         id="path872" />
      <path
         d="m 99.775143,48.283993 c 0.06691,-0.116116 0.200543,-0.348038 0.386977,-0.511166 0.18643,-0.163128 0.4262,-0.25792 0.65154,-0.307969 0.22535,-0.05005 0.43722,-0.05562 0.61239,0.0056 0.17518,0.06118 0.31456,0.189408 0.42032,0.309069 0.10575,0.119662 0.17816,0.231055 0.22549,0.328459 0.0473,0.09741 0.0696,0.180887 0.0558,0.233836 -0.0138,0.05295 -0.0638,0.07517 -0.4437,0.0877 -0.37989,0.01252 -1.08055,0.01514 -1.4648,0.0086 -0.384251,-0.0065 -0.447466,-0.02223 -0.47918,-0.03011 -0.03171,-0.0079 -0.03171,-0.0079 0.03519,-0.124001 z m 3.605277,0.870705 c 0.0139,-0.153266 0.0418,-0.45951 0.0111,-0.765552 -0.0306,-0.306042 -0.1198,-0.612585 -0.25615,-0.865798 -0.13634,-0.253213 -0.3202,-0.45378 -0.59852,-0.629137 -0.27832,-0.175358 -0.65141,-0.325707 -0.99942,-0.414817 -0.34801,-0.08911 -0.67085,-0.11694 -0.97438,-0.08078 -0.30353,0.03616 -0.587284,0.136314 -0.84634,0.267207 -0.259056,0.130892 -0.492656,0.292188 -0.687708,0.51783 -0.195052,0.225643 -0.350756,0.514809 -0.462202,0.796151 -0.111446,0.281343 -0.17819,0.553881 -0.222778,0.888209 -0.04459,0.334327 -0.06684,0.729213 0.0084,1.12755 0.07519,0.398337 0.247685,0.798961 0.425905,1.121992 0.17822,0.323031 0.36191,0.567951 0.626507,0.762895 0.264597,0.194945 0.609767,0.339692 1.002297,0.400911 0.39254,0.06122 0.83259,0.03894 1.19723,-0.03347 0.36465,-0.07241 0.65437,-0.194985 0.89925,-0.320227 0.24488,-0.125242 0.44555,-0.253449 0.60693,-0.364756 0.16138,-0.111307 0.28406,-0.206105 0.34237,-0.270069 0.0583,-0.06396 0.0527,-0.09751 -0.0607,-0.224745 -0.11341,-0.12724 -0.33757,-0.351399 -0.46548,-0.462762 -0.12791,-0.111363 -0.16131,-0.111363 -0.27904,-0.04412 -0.11773,0.06724 -0.31659,0.19982 -0.53113,0.302937 -0.21455,0.103117 -0.44249,0.175391 -0.67097,0.208852 -0.22849,0.03346 -0.45646,0.02791 -0.69612,-0.0529 -0.23966,-0.0808 -0.48995,-0.23654 -0.66542,-0.409247 -0.175468,-0.172708 -0.275669,-0.361971 -0.331332,-0.531833 -0.05566,-0.169861 -0.0668,-0.320279 -0.07236,-0.420472 -0.0056,-0.100193 -0.0056,-0.150391 0.02506,-0.186451 0.03062,-0.03606 0.0922,-0.05845 0.662856,-0.06953 0.57066,-0.01108 1.66209,-0.01108 2.22445,-0.01108 0.56236,0 0.60136,0 0.643,-0.01392 0.0416,-0.01392 0.0865,-0.04197 0.10863,-0.05578 0.0221,-0.01382 0.0221,-0.01383 0.0361,-0.167092 z"
         inkscape:original-d="m 99.708236,48.40011 c 0.133899,-0.232185 0.267534,-0.464106 0.400904,-0.695762 0.23935,-0.09479 0.47912,-0.189582 0.71829,-0.283975 0.21157,-0.0058 0.42344,-0.0114 0.63476,-0.01669 0.13929,0.127638 0.27867,0.255868 0.41761,0.384199 0.0726,0.111088 0.14504,0.222459 0.21716,0.334087 0.0225,0.08331 0.0448,0.16678 0.0668,0.250565 -0.05,0.02207 -0.1,0.04428 -0.15034,0.06682 -0.70938,0.0024 -1.41004,0.005 -2.115462,0.0079 -0.063,-0.01599 -0.126217,-0.03169 -0.189722,-0.04714 z m 3.658254,0.907854 c 0.0281,-0.30651 0.0559,-0.612757 0.0835,-0.918739 -0.0887,-0.306224 -0.17791,-0.612757 -0.26727,-0.91874 -0.18338,-0.200601 -0.36723,-0.401169 -0.55124,-0.601355 -0.37278,-0.150596 -0.74587,-0.300943 -1.11919,-0.451017 -0.32281,-0.02811 -0.64564,-0.05595 -0.96886,-0.08352 -0.28392,0.100034 -0.567678,0.200186 -0.851917,0.300678 -0.233858,0.16139 -0.467458,0.322686 -0.701583,0.484426 -0.155845,0.289652 -0.311549,0.578818 -0.467722,0.868624 -0.06663,0.272873 -0.133369,0.545412 -0.200451,0.818515 -0.02204,0.39552 -0.04428,0.790406 -0.06682,1.186008 0.172998,0.40092 0.345488,0.801545 0.517835,1.202711 0.18407,0.244811 0.36776,0.489731 0.551243,0.734991 0.345549,0.144532 0.690715,0.28928 1.035675,0.434314 0.43997,-0.02252 0.88002,-0.04481 1.31964,-0.06682 0.28962,-0.122685 0.57935,-0.245261 0.86863,-0.367496 0.20049,-0.128188 0.40116,-0.256397 0.60135,-0.384198 0.12258,-0.09478 0.24526,-0.18958 0.3675,-0.283975 -0.005,-0.03359 -0.0109,-0.06708 -0.0167,-0.100224 -0.22102,-0.22156 -0.44518,-0.445715 -0.66817,-0.668176 -0.0331,-2.65e-4 -0.0665,-2.65e-4 -0.10022,0 -0.20178,0.134429 -0.40064,0.267007 -0.60136,0.400904 -0.22838,0.07223 -0.45632,0.144508 -0.68488,0.217157 -0.22835,-0.0058 -0.45632,-0.0114 -0.68488,-0.01669 -0.25058,-0.156348 -0.50087,-0.312079 -0.75169,-0.467723 -0.09999,-0.189634 -0.200194,-0.378896 -0.300686,-0.567946 -0.01087,-0.150527 -0.02201,-0.300945 -0.03341,-0.45102 2.65e-4,-0.05029 2.65e-4,-0.100488 0,-0.150338 0.06119,-0.02241 0.122762,-0.04481 0.183748,-0.06682 1.080388,-2.65e-4 2.171818,-2.65e-4 3.257338,0 0.0392,-2.65e-4 0.0782,-2.65e-4 0.11693,0 0.0445,-0.02792 0.0894,-0.05594 0.13364,-0.08352 z"
         inkscape:path-effect="#path-effect882"
         style="fill:#ffffff;fill-opacity:0.98039216;stroke:none;stroke-width:0.065;stroke-linecap:butt;stroke-linejoin:miter;stroke-miterlimit:4;stroke-dasharray:none;stroke-opacity:1"
         id="path880"
         inkscape:connector-curvature="0" />
      <path
         inkscape:original-d="m 104.58129,52.09505 c 2.6e-4,-1.835023 2.6e-4,-3.669781 0,-5.504278 0.02,-0.05144 0.0396,-0.102632 0.059,-0.153553 0.0707,-0.01982 0.14201,-0.03964 0.21262,-0.05906 0.33344,0.0076 0.6696,0.01548 1.004,0.02363 0.0357,0.03908 0.0711,0.07848 0.1063,0.118116 0.0751,0.216365 0.14988,0.432834 0.22443,0.649647 0.016,-2.65e-4 0.0318,-2.65e-4 0.0472,0 0.0932,-0.186076 0.18925,-0.37824 0.28348,-0.566965 0.12998,-0.07101 0.26013,-0.142005 0.38979,-0.212611 0.34198,-0.0081 0.68535,-0.01601 1.02762,-0.02363 2.7e-4,0.03514 2.7e-4,0.0706 0,0.106305 -0.004,0.344834 -0.008,0.684818 -0.0118,1.027623 -0.0234,0.01945 -0.047,0.03911 -0.0709,0.05906 -0.0476,0.0117 -0.0942,0.02336 -0.14174,0.03543 -0.22564,-0.02008 -0.44858,-0.03964 -0.67327,-0.05906 -0.1298,0.05492 -0.25959,0.10998 -0.38979,0.165365 -0.1063,0.129985 -0.21234,0.259593 -0.31891,0.389787 -0.0392,0.04314 -0.0785,0.08635 -0.11812,0.129931 -0.004,1.299401 -0.008,2.582572 -0.0118,3.874254 -0.0194,0.0076 -0.0391,0.01548 -0.0591,0.02363 -0.0438,-2.65e-4 -0.0864,-2.65e-4 -0.12993,0 -0.4642,-0.0011 -0.92302,-0.0019 -1.38493,-0.0024 -0.008,-0.003 -0.0164,-0.0058 -0.0251,-0.0084 -0.006,-0.0047 -0.0126,-0.0089 -0.0192,-0.01299 z"
         inkscape:path-effect="#path-effect886"
         inkscape:connector-curvature="0"
         id="path884"
         d="m 104.58129,51.177539 c 0,-0.917512 0,-2.75227 0.01,-3.695278 0.01,-0.943008 0.0296,-0.994176 0.0747,-1.029435 0.0451,-0.03526 0.11646,-0.05507 0.31846,-0.06094 0.20199,-0.0059 0.53815,0.002 0.72306,0.02564 0.18491,0.02361 0.22034,0.06298 0.27546,0.190916 0.0551,0.127938 0.12991,0.344406 0.17534,0.452759 0.0454,0.108352 0.0612,0.108352 0.11546,0.01528 0.0542,-0.09307 0.15031,-0.285222 0.2625,-0.41502 0.11218,-0.129797 0.24233,-0.200789 0.47813,-0.240069 0.2358,-0.03928 0.57917,-0.04718 0.7503,-0.03354 0.17113,0.01364 0.17113,0.0491 0.16915,0.239365 -0.002,0.190269 -0.006,0.530255 -0.0195,0.711394 -0.0137,0.181139 -0.0373,0.200798 -0.073,0.216704 -0.0357,0.01591 -0.0823,0.02756 -0.21896,0.0236 -0.13662,-0.004 -0.35957,-0.02351 -0.53677,-0.0058 -0.17721,0.01767 -0.307,0.07273 -0.42529,0.16534 -0.11829,0.09261 -0.22433,0.222218 -0.2972,0.308892 -0.0729,0.08667 -0.11217,0.129894 -0.13396,0.801385 -0.0218,0.671491 -0.0257,1.954662 -0.0373,2.604371 -0.0116,0.649708 -0.0313,0.657585 -0.0633,0.661594 -0.0319,0.004 -0.0745,0.004 -0.3284,0.0036 -0.25386,-4.02e-4 -0.71268,-0.0012 -0.94768,-0.003 -0.23501,-0.0018 -0.2434,-0.0046 -0.25086,-0.0081 -0.007,-0.0036 -0.0139,-0.008 -0.0171,-0.01013 -0.003,-0.0022 -0.003,-0.002 -0.003,-0.919516 z"
         style="fill:#ffffff;fill-opacity:0.98039216;stroke:none;stroke-width:0.065;stroke-linecap:butt;stroke-linejoin:miter;stroke-miterlimit:4;stroke-dasharray:none;stroke-opacity:1" />
      <circle
         r="0.91130584"
         cy="44.576866"
         cx="89.692574"
         id="path888"
         style="opacity:0.98000004;fill:#fef31a;fill-opacity:0.98039216;stroke:#fef31a;stroke-width:0.07321035;stroke-linecap:round;stroke-linejoin:round;stroke-miterlimit:4;stroke-dasharray:none;stroke-opacity:0.98039216;paint-order:stroke fill markers" />
    </g>
  </g>
  <g
     inkscape:groupmode="layer"
     id="layer2"
     inkscape:label="Camada 2"
     transform="translate(0,-217)" />
</svg>
