<?xml version="1.0" encoding="UTF-8" standalone="no"?>
<svg
   xmlns:dc="http://purl.org/dc/elements/1.1/"
   xmlns:cc="http://creativecommons.org/ns#"
   xmlns:rdf="http://www.w3.org/1999/02/22-rdf-syntax-ns#"
   xmlns:svg="http://www.w3.org/2000/svg"
   xmlns="http://www.w3.org/2000/svg"
   xmlns:sodipodi="http://sodipodi.sourceforge.net/DTD/sodipodi-0.dtd"
   xmlns:inkscape="http://www.inkscape.org/namespaces/inkscape"
   width="2500"
   height="2500"
   viewBox="0 0 192.756 192.756"
   version="1.1"
   id="svg14"
   sodipodi:docname="visa-4.svg"
   inkscape:version="0.92.4 (5da689c313, 2019-01-14)">
  <metadata
     id="metadata20">
    <rdf:RDF>
      <cc:Work
         rdf:about="">
        <dc:format>image/svg+xml</dc:format>
        <dc:type
           rdf:resource="http://purl.org/dc/dcmitype/StillImage" />
        <dc:title></dc:title>
      </cc:Work>
    </rdf:RDF>
  </metadata>
  <defs
     id="defs18" />
  <sodipodi:namedview
     pagecolor="#ffffff"
     bordercolor="#666666"
     borderopacity="1"
     objecttolerance="10"
     gridtolerance="10"
     guidetolerance="10"
     inkscape:pageopacity="0"
     inkscape:pageshadow="2"
     inkscape:window-width="1366"
     inkscape:window-height="705"
     id="namedview16"
     showgrid="false"
     inkscape:zoom="0.0944"
     inkscape:cx="-68.855932"
     inkscape:cy="1250"
     inkscape:window-x="-8"
     inkscape:window-y="-8"
     inkscape:window-maximized="1"
     inkscape:current-layer="svg14" />
  <path
     style="clip-rule:evenodd;fill:#315881;fill-rule:evenodd"
     inkscape:connector-curvature="0"
     id="path4"
     d="m 189.922,50.809 c 0,-8.986 -4.67,-13.444 -13.729,-13.444 H 16.562 c -4.528,0 -7.854,1.203 -10.048,3.679 -2.476,2.477 -3.68,5.661 -3.68,9.765 v 91.138 c 0,4.104 1.204,7.217 3.68,9.764 2.548,2.477 5.803,3.68 10.048,3.68 h 159.631 c 9.059,0 13.729,-4.527 13.729,-13.443 z M 176.193,39.488 c 7.5,0 11.322,3.821 11.322,11.321 v 91.138 c 0,7.57 -3.822,11.32 -11.322,11.32 H 16.562 c -3.609,0 -6.368,-1.061 -8.42,-3.184 C 6.019,148.03 4.958,145.2 4.958,141.946 V 50.809 c 0,-7.5 3.75,-11.321 11.604,-11.321 z" />
  <path
     style="clip-rule:evenodd;fill:#315881;fill-rule:evenodd"
     inkscape:connector-curvature="0"
     id="path6"
     d="m 17.835,44.724 c -3.042,0 -4.953,0.495 -6.014,1.557 -0.92,1.203 -1.344,3.184 -1.344,6.085 V 72.107 H 182.279 V 52.366 c 0,-5.165 -2.549,-7.642 -7.643,-7.642 z" />
  <path
     style="clip-rule:evenodd;fill:#dfa43b;fill-rule:evenodd"
     inkscape:connector-curvature="0"
     id="path8"
     d="m 10.477,140.107 c 0,5.234 2.476,7.924 7.358,7.924 h 156.801 c 5.094,0 7.643,-2.689 7.643,-7.924 V 120.365 H 10.477 Z" />
  <path
     style="clip-rule:evenodd;fill:#315881;fill-rule:evenodd"
     inkscape:connector-curvature="0"
     id="path10"
     d="m 67.367,80.528 c 0,0.92 -0.142,1.627 -0.495,2.123 L 54.489,104.233 53.71,77.91 H 33.898 l 6.651,3.184 c 1.91,1.203 2.901,2.759 2.901,4.741 l 1.839,27.951 h 9.694 L 78.193,77.91 H 66.306 c 0.707,0.637 1.061,1.627 1.061,2.618 z m 80.1,-1.557 0.777,-1.062 h -12.1 c 0.424,0.424 0.566,0.637 0.566,0.778 -0.143,0.565 -0.426,0.92 -0.566,1.344 l -17.619,32.124 c -0.424,0.566 -0.85,1.062 -1.344,1.629 h 9.977 l -0.496,-1.062 c 0,-0.92 0.496,-2.617 1.557,-5.023 l 2.123,-3.963 h 10.26 c 0.426,3.326 0.709,6.086 0.85,8.139 l -0.85,1.91 h 12.383 l -1.84,-2.689 z m -7.36,19.742 h -7.359 l 6.297,-12.1 z M 109.539,76.07 c -3.82,0 -7.076,1.062 -9.977,3.184 -3.185,1.84 -4.741,4.175 -4.741,7.077 0,3.326 1.132,6.227 3.396,8.42 l 6.865,4.74 c 2.477,1.77 3.68,3.326 3.68,4.742 0,1.344 -0.639,2.547 -1.84,3.467 -1.203,0.92 -2.549,1.344 -4.246,1.344 -2.477,0 -6.722,-1.768 -12.595,-5.023 v 6.58 c 4.599,2.76 9.058,4.176 13.373,4.176 4.105,0 7.572,-1.133 10.545,-3.68 3.184,-2.336 4.74,-5.094 4.74,-8.137 0,-2.549 -1.133,-4.883 -3.68,-7.36 l -6.582,-4.741 c -2.191,-1.769 -3.395,-3.326 -3.395,-4.528 0,-2.759 1.627,-4.175 4.953,-4.175 2.264,0 5.59,1.274 10.047,3.963 l 1.346,-6.864 c -3.752,-2.124 -7.643,-3.185 -11.889,-3.185 z m -26.322,37.715 c -0.142,-1.486 -0.425,-2.83 -0.567,-4.246 L 91.637,80.528 93.76,77.91 H 80.811 c 0.142,0.637 0.283,1.486 0.425,2.123 0,0.637 0,1.416 -0.142,2.123 l -8.986,28.728 -1.84,2.902 h 12.949 z" />
</svg>
